<svg xmlns="http://www.w3.org/2000/svg" fill="none" viewBox="0 0 142 4" preserveAspectRatio="none" ><defs/><path fill="#1d4351" d="M0 2.08c.16.09.22.15.29.15 5.96.18 11.92.4 17.89.52 2.4.05 4.81-.19 7.21-.16 4.2.06 8.41.3 12.61.32 2.95 0 5.9-.52 8.84-.32 3.95.28 7.9.26 11.85.33 1.48.03 2.95-.09 4.42-.1l7.77.02c.68 0 1.36-.08 2.04-.09 1.22-.01 2.44-.04 3.66.02 1.58.1 3.16.36 4.74.38 2.87.04 5.75-.08 8.63-.07 2.7.01 5.38-.28 8.07-.44 3.56-.2 7.12-.34 10.67.22 1.35.21 2.73.18 4.1.18 3.7 0 7.4.14 11.1-.1 3.93-.26 7.83.4 11.75.27 1-.03 2-.08 3-.09.4 0 .8.1 1.18.12.6.03 1.2.02 1.81.03l.36-1.36c-.12-.81-.48-1.04-.89-1.13a2 2 0 00-.96-.03c-3 .86-6.02.5-9.03.52-4.93.03-9.85.36-14.77.5-3.16.07-6.32-.22-9.48-.35-.83-.03-1.66-.23-2.47-.11-4.5.66-8.98.44-13.48.38-5.86-.07-11.72-.1-17.58-.1-3.38 0-6.76.1-10.13.14-1.77.02-3.53-.07-5.29-.04-1.08.02-2.15.24-3.22.27-1.66.03-3.3-.06-4.96-.05-4.28.04-8.55.15-12.83.13-3.13-.02-6.27.1-9.37-.38-3.24-.5-6.44-.33-9.67.07-1.58.2-3.17.1-4.75.14-1.9.04-3.8.09-5.7.11-.7.01-1.38.04-2.05-.08-1.77-.3-3.52-.01-5.36.18z"/></svg>