<?xml version="1.0" encoding="utf-8"?>
<!-- Generator: Adobe Illustrator 25.4.1, SVG Export Plug-In . SVG Version: 6.00 Build 0)  -->
<svg version="1.1" id="Layer_1" xmlns="http://www.w3.org/2000/svg" xmlns:xlink="http://www.w3.org/1999/xlink" x="0px" y="0px"
	 viewBox="0 0 841.9 226.9" style="enable-background:new 0 0 841.9 226.9;" xml:space="preserve">
<path d="M112.6,77.2c1.6-1.3,3.1-2.8,4.2-4.5c0.3-0.7-0.2-0.7-0.5-2c-0.3-1.2-0.5-2.4-0.6-3.7c-0.1-3,0.1-6.3-0.3-8.4
	c-0.2-1.5-4.2-4.7-5.3-5.6c-0.7-0.6-1.4-1.4-2.7-2.6c-1.3-0.2-2.6-0.6-3.8-1.2c-0.5,0.1-0.9,0-1.4,0c-0.7-0.2-1.4-0.5-2-0.8
	c-1.2-0.5-2.5-0.6-3.4-1.1c-1.6-0.7-2.9-2-3.6-3.6c1.1,0.7,2.2,1.2,3.5,1.4c-2.6-2-5.4-3.8-8.3-5.3c-1.3-0.6-2.6-1.1-3.9-1.5
	c-1.6-0.3-3.2-0.4-4.8-0.5c-1.7-0.2-3.4-0.3-5.1-0.3c-1.6,0.7-3.2,1.3-4.9,1.7c-0.9,0.1-2.1,0.5-3.6,0.8c-1.5,0.3-2.7,0.3-4.6,0.7
	c-1.9,0.5-4.1,1.3-6.1,2c-1.1,0.4-2.2,0.6-3.2,1c-1.1,0.8-2.3,1.4-3.5,1.9c-6.9,3.1-15.3,6.6-15.3,6.6s-0.2,0.4,0.3,0.4
	c3.6,1.1,7.2,2.5,10.6,4.2c0.5,0,0.2,0.5,0.2,0.9c-0.7,0-1.3-0.1-1.9-0.4c-4.2-0.7-8.5-1-12.7-1c-1.9,0.7-3.7,1.8-5.2,3.1
	c-0.8,0.5-1.7,0.9-2.7,1.2c-1.8,0.6-3.7,1-5.6,1.3c-0.5,1.6-1.4,3-2.6,4.3c-1.8,2.2-2.2,5.2-0.8,7.7c0.8,2.7,0.7,5.6-0.2,8.2
	c-0.9,1.6-0.9,3.5,0.1,5c1.8,3.2,0.5,4.3,4.5,7.8c1.5,1.3,5.1,4.2,9.2,7.6c2.5,2.1,5.1,4.5,7.6,6.5c2.2,1.8,4.6,3.1,6.3,4.3
	c1.2,0.9,2.4,1.8,2.9,2.2c1.6,1.4,3.3,2.6,5.2,3.6c4.3,2.2,8.4,4.8,12.2,7.8c5.3,4.1,12.3,10,15.8,13.5c0.8,0.6,1.2,1.6,1,2.6
	c-0.9,0.3-1.9,0.5-2.8,0.5c0.2,0.1,0.3,0.2,0.5,0.4c0.4,0.4,2,16.6,2,16.6c0.4,2.3-1.2,4.5-3.5,4.9c0,0,0,0,0,0c-0.1,0-0.3,0-0.4,0
	c-2.4,0.2-4.7,0-7-0.6c-2.8-0.6-5.4-1.8-7.7-3.4c-0.3-0.2-0.8,0.2-0.8-0.2c-0.7-0.8-1.6-1.5-2.5-2c-1.4-1.1-2.5-2.5-3.2-4.2l-3.2,0
	c-0.4-0.2-0.7-0.7-0.7-1.2c0.4-1.9,1.6-5.2,2.1-7c0.2-0.9,0-2.4,0.1-4.4c0.2-2.3,0.9-6.4,0.9-6.4s-0.4-4.2-4.5-0.2
	c-3.7,3.7-7.2,7.6-10.3,11.8c-3.6,4.6-7.5,8.9-11.7,12.9c-2.7,2.2-3.6,2.1-3.9,4.1c0,0,0,0.9-4.2,0c-2.1-0.5-5.5,2.1-8.2,4.6
	c-3,2.9-7.2,6.8-7.2,6.8s-2.5,2.9,0.5,3.6c2.2,0.5,6.4,3.8,9.6,4c3.4,0.2,9.1,1.7,10.3,1.7s2.1,0.1,2.1,0.1c1.2-1.2,2.7-2.1,4.3-2.6
	c1.4-0.3,2.7-0.4,4.1-0.2c0,0,2.6-2.2,3.7-3.2c3.3-3.3,5.6-5.6,7.5-7.3c0.4-0.4,0.9-0.8,1.4-1c0.2-0.4,0.6-0.7,0.9-1
	c0.5-0.5,1-0.9,1.7-1.1c0.8-0.1-0.2,0.9-1.3,2.3c-0.3,0.5-0.6,1-0.8,1.6c-0.5,0.7-1,1.5-1.4,2.2c-0.3,0.7-0.8,1.5-0.8,1.5
	c0.7,0.4,1.4,0.8,2.2,1l3.2,1.1c2,0.7,4.5,1.4,7.2,2.5c1.4,0.5,2.7,0.8,4.1,1.1c3.2,1.2,6.5,1.7,9.9,1.5c1.7-0.4,0.9-0.9,3.8-1.9
	c1.4-0.2,2.8-0.2,4.1-0.1c1.6,0,2-1.6,5.3-1.1c1.3,0.2,3,0.8,4.7,1c1.2,0.2,2.3,0.3,3.5,0.3c-3.8,0.2-7.6,0.8-11.3,1.8
	c-0.3,0.1-0.5,0.2-0.8,0.4c0.9,0.5,2,0.7,3,0.8c1.2,0.2,5,1.2,6.6,1.7c0.8,0.2,0.6-0.2,1.7-1.1c1.3-0.8,2.8-1.3,4.3-1.4
	c1.4-0.1,1.9-1.3,1.8-3.1c0.3-6.4,1.1-12.8,2.5-19.1c0.3-1.2,0.4-2.5,0.4-3.7c-0.8-3.4-1.9-6.7-3.2-9.9c-1-3-2.2-6-3.6-8.8
	c-2.5-5.1-3.3-6.9-7.6-9.3c-4.9-2.8-4.7-4.5-6.9-6.5c-1.8-1.6-3.7-3.2-5.7-4.5c-1.5-0.9-3.8-2.2-5.2-3.2c-3.5-2.6-7.1-5-11-7
	c-3.6-1.6-7.1-3.4-10.4-5.5c-2.8-2-5.5-4.2-7.9-6.6c-2.5-2.2-4.8-4.6-6.9-7.2c-1.9-1.8-2.5-4.5-1.6-6.9C29,82.3,29,82,29,81.6
	c0.3-0.7,0.5-1.5,0.6-2.2c0-0.9,0.2-1.8,0.6-2.6c0.2-0.3,0.7,0,0.9-0.3c0.3-0.4,1.1-1.2,1.4-1.7c0.9-1.2,1.9-2.4,2.2-2.8
	c0.4-0.5,0.1,1-1.1,2.9c-1.8,2.9-2.3,4.1-2.2,5.6c1.5-1.4,3.2-2.7,5-3.8c2.1-1.2,4.4-2.3,6.7-3.2c1.6-0.6,4.8-0.8,7.2-1.8
	c1.1-0.5,2-1.4,2.8-2.4c2.1-1.9,4.6-3.3,7.2-4.2c2.6-0.8,5.2-1.3,7.9-1.6c1.7-0.3,3.3-0.4,5-0.5c0.9,0,3,0.2,3.9,0.3
	c2.2,0.2,6.1,1.4,8.5,1.9c0.7,0.1,1.3,0.3,2,0.5c0.7,0.1,1.4,0.3,2.1,0.6c1.7,0.8,3.3,1.7,4.8,2.7c0.8,0.6,1.2,1.5,1.1,2.5
	c-0.2,1-0.6,1.9-1.2,2.7c-0.6,0.7-1.5,2.1-2.6,3.3c-1.3,1.4-2.9,2.6-4.5,4.3c-3.5,3.8-6.5,8-8.9,12.7c0.2,1.6,0.9,5.1,0.9,5.1
	c3.6-4.2,8.2-7.5,13.3-9.5c2.8-1.1,4.9-2.1,6.3-2.7c2-0.9,2-1,2.5-2.4c0.9-2.4,1.3-2.6,4.2-3.4c1.1-0.2,2.1-0.5,3-1.1
	C110.1,79.6,111.4,78.4,112.6,77.2L112.6,77.2z M78.4,161.9c0.4-3.4,0.5-5.4,0.5-5.4s0.8,6.3,0.7,7.7c-0.5,2.4-2.8,4-5.3,3.7
	c0,0-0.4-0.4,1.2-1.2c0.5-0.4,0.8-1,1.1-1.5C77.6,164.3,78.2,163.2,78.4,161.9L78.4,161.9z M153.4,106.1c-0.3-0.2-0.6-0.4-0.9-0.5
	c-0.4-0.6-0.8-1.1-1.3-1.6c-1.7-1.2-2.9-2.6-4-3.2c-0.6-0.2-1.1-0.3-1.7-0.2c-0.3-0.2-0.7-0.3-1.1-0.3c-2.4,0-2.1,0.1-3.4-1.3
	c-1.3-1.5-2.1-3.6-4-2.5c-0.7,0.4-2,0.9-3.5,1.7c-2.4,1.2-4.6,2.7-6.5,4.6c-0.3,0.8-0.5,1.7-0.6,2.6c-0.2,1.7-1.9,0.8-2.5,0.3
	c-0.4-0.3-1-0.3-1.5-0.1c-0.4,0.4-0.8,0.8-1,1.4c-1.6,2.5-3.8,4.5-6.3,6.1c-1.4,0.7-2.8,1.5-4,2.4c0,0.9-0.2,1.9-0.4,2.8
	c-0.2,1-0.7,2.1-1,3.4c-0.5,2.3-1.1,5-1.7,7.2c-0.4,1.6-0.9,3.1-1.6,4.6c-0.2,0.4-0.2,4.8-0.5,7.5c-0.3,2.6,0.7,3.7,1,6.1
	c0.3,2.7-0.1,6.9,0.1,8.4c1.1,4,2.7,7.8,5,11.3c1.1,2.4-0.3,4.3,1.2,6.7c0.8,1.3,2.1,3.3,3.8,5.4c1.5,1.9,1.6,2.8,2.4,3.8
	c1.4,0.9,2.8,1.5,4.4,1.9c2.9,0.8,7.6,2,7.6,2c0.4-0.1,0.8-0.3,1.1-0.6c1.6-0.5,3.2-0.7,4.9-0.8c0.9-0.2,9.6-4.7,11.9-5.3
	c0.4-0.1,0.7-0.2,1.1-0.4c0.1-0.4,0-0.8-0.1-1.1c-0.6-0.2-1.2-0.3-1.8-0.3c-0.6-0.4-1.3-0.6-2-0.8c-0.7-0.1-1.5,0.3-3.4,0.5
	c-3.1,0.2-6.3-0.6-8.9-2.3c-0.7-0.4-1.3-0.8-1.9-1.4c-0.7-0.7-1.5-1.8-2.4-2.9c-0.8-1-1.8-2-2.5-3.1c-1.1-1.6-1.9-3.3-2.5-5.1
	c-0.5-1.4-1-2.7-1.4-4.1c-0.3-1.2-0.1-2.5,0.4-3.6c0.2-0.5,0.7-1,1.2-1.2c0.8-0.3,1.5-0.7,2.2-1.1c0.9-0.7,2-1.2,3.2-1.5
	c1.7-0.2,3.5-0.3,5.2-0.3c1,0,1.9-0.2,2.8-0.6c0.9-0.8,1.6-1.6,2.3-2.5c1.2-1.1,2.6-2.9,3.9-3.9c0.8-0.7,1.7-1.3,2.7-1.7
	c2.4-2.8,4.3-6.2,5.4-9.7c0.2-2.7,0.2-5.3,0.1-8c0-1.8,2.6-8.1,2.6-11C155,111.2,154.5,108.6,153.4,106.1L153.4,106.1z M127.2,142.5
	c-1.3,0.5-2.6,1-3.8,1.7c-0.5,0.2-1,0.2-1.5,0.2c-0.3-0.1-0.6-0.2-0.8-0.4c-0.9-0.2-0.8-0.6-0.8-0.6c0.6-0.6,1.5-0.9,2.3-0.9
	c0.6,0.1,1.2,0.2,1.8,0.2c0.8-0.2,1.9-0.6,2.4-0.7c0.5,0,1.6-0.1,1.6-0.1C128,142.2,127.6,142.4,127.2,142.5z M138.3,134.1
	c-0.2,1.1-0.8,2.1-1.6,2.9c-0.4,0.8-1,1.5-1.7,2.2c-1.5,0.6-3.2,1-4.8,1c-1.6,0-3.2,0.2-4.8,0.6c-0.5,0.5-1.2,0.6-1.9,0.4
	c-0.6-0.4-1.3-0.8-2-1c-1.1-0.8-1.8-2-1.9-3.3c-0.7-3.5,0.1-7.1,2.3-9.9c1.1-1.5,2.2-2.6,3.2-3.9c1-1.3,1.9-2.6,2.6-4
	c1-1.7,2.1-3.2,3.3-4.7c1.1-1.4,2.4-2.8,3.8-4c0.5-0.4,1-0.6,1.6-0.6c0,0,0.3,1.2,0.4,1.9c0.3,1.1,0.4,3.1,0.8,6.1
	c0.2,1.2,0.5,3.2,0.8,4.4C139.2,126.1,139.1,130.1,138.3,134.1L138.3,134.1z M215.7,180c-3.2-2.6-6.3-5.4-9.2-8.3
	c-0.4-2.6-1.1-2.4-1.1-4.1c0.6,1,1.2,2,1.6,3c1.2,1.4,2.7,2.5,4.4,3.3c0,0-0.4-1.1-1.9-4.2c-3.9-8.1-5.6-17.1-4.8-26.1
	c1.1-14.8,2.5-24.6,2.5-24.6l-1,2.8c-0.6-1.4-0.4-3,0.6-4.1c0.4-0.2,0.7-0.6,0.8-1c0.2-0.9,0.4-1.7,0.7-2.5c0.5-1.4,1.6-3.2,2.1-4.9
	c0.5-1.8,0.8-3.7,1.1-5.5c0.6-2,0.9-4.1,0.8-6.1c0,0-0.1-0.7-1.6-0.5c-1.5,0.2-1.5-0.2-1.5-0.2l-3.5-2.2c-0.9,0-1.7,0.5-2.1,1.3
	c-0.5,0.6-1,1.1-1.4,1.8c-0.9,1.5-2.4,4.4-3.5,6.2c-0.6,0.6-1.3,1.1-2,1.6c-0.4,0.8-1,1.5-1.6,2.2c0.1-1.1,0.5-2.2,1.2-3
	c0.2-0.3,0.4-0.5,0.6-0.8l0.2-1.4c-0.4,0.1-0.8,0.2-1.1,0.3c0,0-5.9,2.4-9.8,3.7c-3.8,1.3-7.8,1.5-9.7,3.5c-1.2,1.6-2.6,3-4.3,4
	c-1.5,0.7-3,4.8-3.2,5.5l3.6-0.1l-1.9,1c-0.2,1-0.5,1.9-1,2.8c-0.5,1.1-1.5,2.8-2.1,4.2c-1.3,3-2.2,4.3-3.3,6.9
	c-0.3,0.6-0.4,1.4-0.7,2c-0.3,0.6-0.7,1-1,1.6c-0.9,1.9-1.6,4-2.4,5.6c-1.3,2.8-2.5,4.9-2.6,5.2c-0.6,2.8-0.9,5.7-0.9,8.7
	c0,1.2,0,2.3-0.1,3.5c-0.6,2.1-0.3,4.3,0.7,6.1c0.3,1.2,0.9,2.4,1.7,3.4c1.3,1.2,3,2.8,5,4.4c1.6,1.3,3.7,2.7,5.2,3.9
	c2.6,2.1,5.2,4.5,5.2,4.5c0.9-0.1,1.8,0,2.7,0.3c1.4,0.4,2.8,0.7,4.2,0.8c0.8-0.9,1.5-1.9,2-3c0-1,0.1-1.9,0.4-2.8
	c0.4-0.8,1-1.6,1.7-2.2c1.4-1.5,3.3-3.7,3.3-3.7s0.2-1.7,0.2-2.6c0-3,4.2-5.7,4.2-5.7c0.6,1.4,1,2.8,1.3,4.3c-0.1,2,0.3,4,1,5.9
	c0.8,1.2,1.9,2.2,3.2,2.8l2.2,1.4l8.7,3.8c0,0,2-0.2,3.8-0.3c1.1-0.1,2.8,0.1,3.6,0.1c0-0.2-0.1-0.5-0.2-0.7
	C217.1,180.8,216.9,181.2,215.7,180L215.7,180z M164.3,172.1c-0.7-0.4-1.4-0.9-2.1-1.5c-0.5-0.4-0.9-0.4-1.4-0.8
	c-0.8-0.8-1.5-1.7-2.1-2.6c-0.3-0.6-0.4-1.2-0.3-1.9c0.1-1,0.7-1.9,0.7-3.1c-0.1-0.9-0.3-1.7-0.6-2.6c0-1.2,0-2.4,0.1-3.6
	c0.1,0.9,0.3,1.7,0.5,2.6l1.2,5.7c0.1,0.5,0.3,1,0.6,1.4c0.2,0.8,0.6,1.5,1,2.2c1,1.5,2.3,2.9,3.6,4.1c0.1,0.1,0.7,0.7,0.7,0.7
	C166.4,173,164.9,172.4,164.3,172.1L164.3,172.1z M190.6,155.4c0,2.2-4.2,4-6.4,5.3c-2.1,0.8-4.4,1.1-6.6,1.1
	c1.3-0.4,2.7-0.9,3.9-1.4c-0.1-0.4-0.3-0.8-0.6-1.1c-0.5-0.6-0.9-1.3-0.9-2.1c-1.9-1.4-3.5-3-5-4.8c-0.8-1-1.4-2-2.1-3
	c-0.6-0.7-1.1-1.5-1.6-2.3c-0.5-0.6-0.8-1.4-0.8-2.2l3.5,4l0.3-7.6c0,0,5.4-9.6,8.6-15.3c3.2-5.7,3.9-5.5,3.9-5.5l2.8-1.1
	c0.2,0,0.6-0.6,0.7-0.4c0,1.2,0,2.3-0.1,3.5c0.5,5.7,0.3,17.8,0.5,23.9c-0.1,1.8,0.7,3.6,0,5.3C190.5,152.9,190.5,154.2,190.6,155.4
	L190.6,155.4z M193.8,148.4c-1.1,2.3-2.4,4.6-3.8,6.8c0,0,1.2-4.6,1.9-6.9c0.6-3.9,0.8-7.9,0.7-11.9c0,0,0.1,1.9,0.4,4
	c0.2,1.3,0.8,2,1,3.4C194.2,145.3,194.1,146.8,193.8,148.4L193.8,148.4z M263.7,129c0,0.1,0,0.3,0,0.4c-0.2,0-0.4-0.1-0.6-0.1
	C263.2,129.2,263.5,128.9,263.7,129L263.7,129z M253.3,142.6c-1-0.8-2.2-1.4-3.4-1.9c0.4-0.2,0.8-0.2,1.2-0.1
	c0.4,0.1,0.8,0.1,1.2,0.1c0.8-0.7,1.6-1.4,2.3-2.2c0.1-0.4,0.2-0.7,0.3-1.1c0.4-0.1,0.8-0.2,1.2-0.3c0.5-0.5,1-1,1.5-1.5
	c0.2,0.1,0.3,0.3,0.3,0.5c-0.1,0.1-0.3,0.2-0.4,0.3c-0.1,0.5-0.1,1.1,0,1.6c-0.2,0.5-0.2,1.1-0.2,1.6c-0.5,0.9-0.9,1.8-1.2,2.8
	c-0.1,0.1-0.2,0.3-0.3,0.4c-0.1,0.2-0.1,0.4-0.1,0.6c-0.4,0.7-0.9,1.3-1.4,1.8c-0.6,0.2-1.2,0.4-1.9,0.6c0.2-0.7,0.5-1.3,0.7-2
	C253.2,143.6,253.3,143.1,253.3,142.6L253.3,142.6z M254.1,160.2c1.1,0,2.2-0.3,3.3-0.7c-0.4-0.2-0.7-0.4-1.1-0.6
	c0-0.1,0.1-0.2,0.2-0.3c1.1,0,2.4-0.3,3.5-0.3c-0.1,0.9-2.1,0.2-2.1,1.2c0.7,0.1,1.7-0.2,2.3,0c-0.1,0.4-0.7,0.3-1,0.3
	c-1.7,0.2-4.1,0.5-5.7,0.8c-0.2,0.1-0.5,0.1-0.7,0C253.2,160.3,253.7,160.1,254.1,160.2L254.1,160.2z M306.2,182
	c0.9-1.7,1.5-3.6,1.6-5.5c-0.4-0.4-0.4-1-0.2-1.5c-0.6,0-1.1-0.1-1.7-0.2c0.1,0.2,0.2,0.3,0.3,0.5c-0.1,0.7-0.6,1.3-1.3,1.4
	c-0.5-0.1-0.8-0.6-0.9-1.1c-0.3,0-0.7-0.1-1-0.1c-0.5-0.3-0.9-0.7-1.3-1.1c0.2-0.3,0.3-0.6,0.4-0.9c-0.3-0.1-0.5-0.3-0.5-0.5
	c0.1-0.3,0.3-0.5,0.5-0.7c-1.2-2.2-2.4-4.5-3.5-6.7c0-0.2-0.1-0.3-0.1-0.5c-0.1-1,0-1.9,0.2-2.9c0-0.3,0.1-0.6,0.4-0.7
	c0.4,0.3,3.3,7.8,4.5,10.2c0.6-0.1,0.7,0.4,0.8,0.9l0.1,0.1c0.7-0.3,1.5-0.7,2.3-1c-0.1-0.4,0-0.7,0.4-0.8c0.4-1.9,0.8-3.7,1.2-5.6
	c0.4-0.1,0.6-0.4,0.5-0.8c0-0.2-0.2-0.4-0.3-0.4c0.2-0.5,0.7-0.8,0.8-1.4c-0.2-0.5-1.1-0.9-0.6-1.5c-0.1-0.1-0.2-0.1-0.3-0.3
	c0.1-0.2,0-0.5-0.1-0.7c0-0.2,0.2-0.2,0.1-0.3c-0.1-0.2-0.3-0.4-0.5-0.6c0.1-0.2,0-0.4-0.1-0.6c-1.6-0.3-1.2-1-1.1-1
	c0.2-0.1,0.4,0,0.6,0c1-0.2,1.4-0.8,2.4-0.9c0.8,0,1.5,0.1,2.3,0.3c0.4,0.8,0.8,1.6,1,2.4c0,0.4-0.1,0.8-0.2,1.3
	c0.1,0.1,0.2,0.2,0.2,0.3c0,0.2-0.3,0.3-0.3,0.5c0.1,0.2,0.3,0.4,0.5,0.6c-0.1,0.1-0.1,0.3-0.1,0.4c0.3,0.4,0.8,0.7,1.1,1.1
	c0,0.2-0.1,0.3-0.1,0.5c2,0.7,3.9,1.7,5.5,3l1.3-1.3c0.1-0.7,0.2-1.4,0.3-2.1c0-0.5-0.1-1.1-0.1-1.6c0.1-0.2,0.2-0.3,0.3-0.4
	c0-0.1-0.2-0.1-0.1-0.3c0.4-0.7,0.8-1.5,1.1-2.3c-0.1-0.3-0.2-0.7-0.3-1.1c0.1-0.2,0.2-0.4,0.3-0.6c-0.1-0.3-0.1-0.5-0.1-0.8
	c0.3-0.5,0.7-0.9,1.1-1.3c0.6-1,1.3-1.9,2.2-2.7c0.8-0.8,1.6-1.7,2.3-2.6c-0.2-1-0.2-1.7-0.3-2.6c-0.5-0.4-1.1-0.7-1.7-1
	c-0.2,0.1-0.4,0.2-0.7,0.2c-0.2-0.1-0.4-0.2-0.5-0.3c-0.5-1.1-1.3-1.9-1.8-3c-0.7-1-1.2-2.1-1.7-3.2c0.2-1.4,0.8-2.8,1.9-3.8
	c0.1-1.1,0.3-2.3,0.6-3.4c0-1.9-0.5-4-0.2-5.8c0.1-0.5,0.2-1,0.1-1.5c0-0.1,0-0.3,0.1-0.5c-0.2-1.3,0.1-2.6-0.2-4.1
	c-1.5-1.3-2.8-2.7-4-4.2c-1.3-1.7-2.3-3.6-2.9-5.6c-0.8-0.2-1.7-0.5-2.5-0.7c-0.4-0.1-0.8-0.2-1.3-0.4c-0.4,0-0.8-0.2-1.2-0.5
	c0.3-0.2,0.6-0.2,1-0.2c0.5,0,1.2-0.1,1.6-0.2c-0.9-1.5-1.8-2.9-2.8-4.3c-0.3-0.8-0.7-1.5-1.1-2.2c-0.2-0.2-0.5-0.2-0.7-0.2
	c-0.2-0.3-0.5-0.6-0.9-0.7c-1.7,0.1-3.4,0.5-5.1,1.1c-0.8,0.5-1.4,1.1-2.1,1.6c-1.7,0.4-3.3,1-4.8,1.8c-1.3,0.8-2.7,1.6-4.1,2.4
	c-0.6,0.7-1.4,1.2-2,1.9c-1.1,0.4-2.1,0.9-3.2,1.3c-0.2,0.3-0.5,0.6-0.7,0.8c-1.5,0.2-2.7,1.1-3.4,2.4c-0.5,0.1-1,0.2-1.5,0.4
	c-1.8,1.4-3.6,2.8-5.5,4.3c-0.9,0.7-1.9,1.4-2.7,2.2s-1.7,1.6-2.5,2.3c-0.3,0.1-0.5,0.2-0.8,0.3c-0.1,0.3-0.2,0.6-0.4,0.8
	c-0.2-0.1-0.4-0.2-0.5-0.4c-0.2-0.1-0.3-0.2-0.5-0.2c0.7,1.5,1.3,3,1.7,4.6c0.1,0.6,0.2,1.2,0.1,1.7c-0.6-0.3-1.2-0.5-1.9-0.6
	c0.5,0.5,0.9,1.1,1.3,1.6c0.2-0.2,0.5-0.4,0.8-0.5c0.1,0.2,0.2,0.3,0.2,0.5l1-0.5c0.9,0.5,1.7,1,2.5,1.6c0.3,0.2,0.5,0.5,0.7,0.9
	c0.1,1.3,0,2.5,0,3.8c0.1,1.1,0.1,2.3,0,3.4c0.1,1-0.2,2.1-0.7,3c-0.3,0-0.6,0-0.8-0.1c-0.1,0.4-0.3,0.8-0.7,1.1
	c-0.2-0.1-0.5-0.2-0.7-0.3l-0.2,1.3c-0.1,0.1-0.2,0-0.2,0.2c0.2,0,0.5-0.1,0.7-0.2c0-0.3,0.1-0.6,0.3-0.8c0.2,0,0.5,0,0.7,0
	c1-0.8,2-1.5,3-2.3c-0.1-0.2-0.4,0-0.4-0.3c0-0.2,0-0.4,0.2-0.5c0.8-0.3,1.7-0.5,2.5-0.5c1.3-1.3,2.7-2.5,4.1-3.7
	c0.5-0.4,1-0.8,1.5-1.1c0.4,0,0.4,0.5,0.2,0.8c-0.7,0.8-1.4,1.6-2.1,2.3c-0.3,0.4-0.7,0.8-1,1.2c-0.4,0.4-0.7,0.8-1,1.2
	c0.2,0.5-0.1,1-0.5,1.3c-0.5,0-1,0.3-1.2,0.8c0,0.3,0,0.6,0,0.9c-0.5,0.7-0.9,1.4-1.4,2.1c-0.1,0.6-0.3,1.2-0.3,1.9
	c-0.6,1-1.2,2-1.7,3c1.1-0.2,2.2-0.4,3.2-0.7c0.4,0.1,0.7,0.2,1.1,0.4c0.3,0,0.7,0,0.9,0.2c-0.2,0.2-0.5,0.3-0.8,0.3
	c-1,0.3-1.9,0.5-2.9,0.8c-0.8,0.1-1.7,0.3-2.5,0.5c-0.2,0.3-0.3,0.6-0.5,0.9c0.6-0.1,1.2-0.3,1.8-0.4c0.2,0,0.4-0.2,0.5,0
	c-0.3,0.3-0.7,0.6-1,0.9c-1.6,0.6-3.2,1.2-4.7,1.8c-0.1,0-0.2,0-0.3,0.1c0.4-0.1,0.6,0,1-0.1c0.4,0,0.9,0,1,0.4
	c-0.1,0.2-0.4,0.3-0.6,0.3c-1.1,0.2-2.2,0.4-3.3,0.5c-0.5,0.1-0.9,0-1.3-0.2c-0.2-0.2,0.3-0.4,0.1-0.4c-1.2,0-2.3,0-3.5,0.2
	c-0.2,0-0.4,0.1-0.6,0.2c0.5,0,1.1-0.1,1.6-0.1c0.5-0.1,1,0,1.4,0.2c0.1,0.4-0.9,0.7-1.2,0.7c-0.2,0-0.5,0-0.7,0
	c-2.1,0.2-4.2,0.6-6.4,0.9c-2.2,0.3-4.4,0.6-6.4,0.9c-0.1,0-0.3-0.1-0.3-0.3c-0.1-0.2,0.2-0.4,0.1-0.5c-0.3,0-0.6,0-0.8,0
	c-0.2-0.1-0.3-0.2-0.4-0.3c-1.3,0.3-2.6,0.3-4,0.2c0-0.1-0.1-0.2-0.1-0.4c0.2-0.2,0.5-0.4,0.8-0.6c2.1-0.4,4.4-0.9,6.6-1.4
	c0.3,0,0.6-0.1,0.8-0.3c-2,0.2-4.1,0.6-6,0.8c-0.3,0-0.6,0.1-0.7-0.3c0.1-0.2,0.3-0.4,0.5-0.5c-0.9,0.1-1.8,0.2-2.8,0.3
	c-0.1,0-0.2,0-0.3-0.1c-0.4,0.2-0.8,0-1-0.3c0-0.2,0.1-0.4,0.2-0.4c1.3-0.4,2.8-0.7,4.2-1.1c-0.5-0.3-1.1-0.6-1.5-1
	c-0.2-0.3-0.1-0.6-0.3-0.9c-0.1,0.2-0.3,0.3-0.5,0.3c-0.2-0.1-0.4-0.3-0.6-0.6c-0.4-0.8-0.9-1.6-1.3-2.4c-0.4,1.3-1,2.5-1.7,3.6
	c-0.4,0.2-0.7,0.5-0.9,0.8l-1.3,0.6c-0.1,0.5-0.4,1.1-0.6,1.6c0.2,1,0.5,2.1,0.7,2.9c0.3,0.3,0.6,0.7,0.9,1c1.4,0.7,2.8,1.3,4.1,2
	c1.3,2.2,3.1,3.7,4.4,5.9c1.1,0.7,2.4,1.3,3.5,1.9c0.4-0.2,0.8-0.4,1.1-0.6c1.3-0.5,2.5-1.1,3.6-1.8c0.3,0,0.6,0.3,0.6,0.6
	c1.2,0.6,2.2,1.4,3.4,2c1.1,0.7,2.3,1.3,3.6,1.8c0.2,0,0.4,0.1,0.6,0.3c0,1.8-0.5,3.5-0.6,5.3c-0.1,0.2-0.2,0.4-0.2,0.7
	c0.5,0.1,1.1,0,1.6,0.1c0.1,0.4,0.1,0.8,0.1,1.2c0.2,0.2,0.5,0.4,0.7,0.7c0.1,1.8,0.1,3.6,0.1,5.3c0.1,0.6,0.1,1.2,0,1.8
	c1.3,1,2.7,1.9,4,2.8c0.3-0.2,0.7-0.4,1.1-0.6c-0.3-1.6-0.6-3.3-0.9-5c0.7-1.1,1.6-2,2.2-3.1c-0.1-0.1-0.2-0.1-0.3-0.2
	c-1,1-2.1,1.9-3.3,2.7c-0.3,0.2-0.6,0.3-1,0.3c-0.2-0.1-0.3-0.2-0.5-0.3c-0.2,0-0.5-0.1-0.6-0.2c0.1-0.4,0.3-0.8,0.7-1.1
	c0.3-0.3,0.6-0.6,0.9-0.9c0.2-1,0.6-1.9,1.3-2.7c-0.1-0.5-0.3-1-0.4-1.5c0.4-0.7,0.8-1.3,1.2-2c-0.4-0.3-0.6-0.8-0.5-1.3
	c0.3-0.4,0.6-0.8,1-1.1c0.3-0.4,0.7-0.8,1.1-1.1c0.3,0,0.7,0.2,1,0.3c0.1,0.1,0.2,0.4,0.3,0.5c0.7,0.4,1.1,1.1,1.1,1.9
	c-0.1,0.3-0.2,0.5-0.4,0.7c-0.1-0.4-0.4-0.7-0.8-0.7c-0.9,0.6,0.5,1.4,0.4,2.5c0.2-0.1,0.4-0.3,0.6-0.4c0.6-1.4,1.9-2.3,3.3-2.6
	c0.7,0.5,1.2,1.1,1.9,1.6c0.1,0.5,0.3,1,0.5,1.5c0.3,0,0.7,0,1,0c0.4,1,0.7,2.2,1.2,3.2c-0.3,0.7-0.9,1.3-1.7,1.4
	c0.2,0.1,0.4,0.1,0.7,0.2c0.3,0.6,0.6,1.2,0.9,1.8c0,0.3-0.2,0.4-0.3,0.7c0.2,1.3,0.3,2.7,0.4,4c0.3,0.4,0.6,0.8,0.8,1.3
	c0.1,0.7,0.3,1.4,0.5,2c0.8-0.4,1.4-0.9,2.2-1.3c0.8,0,1.5,0.1,2.3,0.2c0.4-0.3,0.8-0.5,1.2-0.7c-0.2-0.6-0.3-1.3-0.4-1.9
	c0.2-0.4,0.3-0.9,0.5-1.3c0-0.5-0.1-1-0.3-1.4c-0.3-0.4-0.7-0.6-1-1.1c0.3-1,0.6-2,0.7-3c0.2-0.2,0.5-0.4,0.8-0.5
	c-0.1-0.1-0.2-0.2-0.3-0.3c0.3-0.4,0.5-0.8,0.6-1.2c-0.3-0.2-0.4-0.5-0.5-0.8c-0.3,0.2-0.6,0.4-0.9,0.6c-0.3,0-0.6,0.2-0.7-0.1
	c0-0.2,0.1-0.3,0.2-0.4c0.5-1.2,0.8-2.4,1-3.7c0.4-0.9,1.3-1.6,2.3-1.6c0.2-0.4,0.5-0.8,0.8-1.1c0.5-0.1,1.1,0,1.5,0
	c0.3,0,0.5-0.1,0.8-0.1c0.3,0,0.9-0.4,1.1-0.1c-0.1,0.6-1.3,0.6-1.3,1.2c0.3-0.1,0.6,0,0.8,0.1c0.3,0.7-0.9,0.6-1.2,1.1
	c0.2,0.3,0.4,0.5,0.6,0.7c0.3,0.2,0.5,0.4,0.7,0.6c0.7,0.5,1.2,1.1,1.6,1.8c-0.1,0.1-0.1,0.2-0.2,0.2c-0.9,0.1-1.9,0-2.7-0.3
	c0.1,1.4,1.7,1.1,2.3,1.9c-0.1,0.2-0.3,0.4-0.5,0.6c0.3,0.7,0.8,1.2,1.1,1.9c0.3,0.1,0.5,0.3,0.8,0.5c0,0.2-0.1,0.3-0.1,0.5
	c1,0.8,2.2,1.4,3.2,2.3c0,0.2,0,0.3-0.1,0.5c0.5,0.7,1.3,1.2,2.1,1.4c0.7-0.7,1.3-1.5,1.7-2.5C306,185.5,306,183.7,306.2,182
	L306.2,182z M293.9,117.4c0.5-0.2,1.1-0.3,1.7-0.2c0.3-0.4,0.6-0.8,1-1.1c0.5-0.3,1.1-0.5,1.8-0.5c0.5,0.2,1.1,0.3,1.7,0.5
	c0,0.1,0,0.3-0.1,0.4c-0.3,0.2-0.7,0.3-1.1,0.4c-0.8,0.6-1.6,1.2-2.3,1.9c-0.5,0-1.1,0.1-1.6,0.2c-0.6,0.3-1.1,0.8-1.5,1.2
	c-0.2,0-0.2,0.1-0.4,0.1c-0.1-0.1-0.2-0.2-0.3-0.4C293,119,293.5,118.3,293.9,117.4L293.9,117.4z M286.7,129.5
	c0.5-1,1.1-2.1,1.6-3.2c0.2-0.3,0.5-0.5,0.8-0.6c0.5-0.1,0.9-0.1,1.4,0c0.7-0.7,1.2-1.5,1.9-2.2c1.2,0,2.4,0.3,3.5,0.7
	c0.1,0,0.2-0.1,0.2-0.1c0.1,0.1,0.2,0.1,0.3,0.2c0.1,0.2,0.1,0.4,0.1,0.6c-0.4,0.3-0.9,0.4-1.4,0.3c-0.3-0.1-0.6-0.2-0.9-0.1
	c-0.2,0.2-0.5,0.3-0.8,0.5c-0.3,0.7-0.8,1.2-1.1,1.9c-0.3,0.2-0.6,0.4-0.9,0.5c-0.7,0-1.4,0-2-0.1c-0.5,0.3-0.9,0.8-1.2,1.3
	c0,0-0.9,1.1-1.1,1.3c-0.1,0.2-0.3,0.3-0.6,0.3C286.4,130.2,286.8,130,286.7,129.5L286.7,129.5z M272.2,164.4
	c-0.5,0-1.3,0.2-1.9,0.2c-0.2,0.1-0.5,0-0.7-0.1c0-0.3,0.4-0.2,0.6-0.4c0.3-0.1,0.4-0.2,0.7-0.3c0.4-0.3,0.8-0.5,1.2-0.7
	c0.8,0,1.7-0.2,2.5-0.4c0.2,0,0.5,0.1,0.7,0.2c0.4,0,0.7,0,1.1,0.2c-0.2,0.2-0.4,0.3-0.6,0.3l-0.4,0
	C274.5,164,273,163.9,272.2,164.4L272.2,164.4z M274.3,170.6c-0.3,0.1-0.7,0.1-1,0c0.1-0.2,0.3-0.4,0.6-0.5c0.2-0.1,0.4-0.3,0.6-0.4
	l0.1,0c1.1-0.1,2.1-0.2,3.2-0.4c0.4,0.2,0.9,0.4,1.3,0.5C277.6,170.2,276,170.5,274.3,170.6L274.3,170.6z M295.8,164.5
	c-1.3,0.2-2.6,0.5-4,0.6c-0.3-0.1-0.5-0.2-0.7-0.4c-0.8-0.9-1.5-1.8-2.1-2.8c-0.7,0.2-1.6,0-2-0.6c0.5-0.3,1-0.6,1.5-0.8
	c-0.3-1.2-0.5-2.4-0.4-3.6c-1.4,0.9-2.5,2.1-3.1,3.7c-0.7,1.7-0.9,3.5-0.8,5.4c3.4-0.2,7-0.5,10.5-0.8c0.5-0.1,1-0.2,1.5-0.2
	c-0.1,0.3-0.4,0.6-0.7,0.8c-0.4,0.2-0.9,0.3-1.3,0.3c-0.7,0-1.4-0.1-2.1-0.1c-2,0.2-3.7,1.1-5.9,1.3c-0.3-0.1-0.5-0.2-0.8-0.4
	c-0.4,0-0.7-0.1-1.1-0.1c-2,0.3-4,0.4-6,0.5c-0.4,0-0.8,0-1.2,0c-0.4,0-0.8,0-1.2,0c0.3-0.3,0.7-0.5,1.1-0.6c1-0.3,2-0.7,3-1.1
	c0.3,0,0.6-0.2,0.7-0.5c-0.3-0.4-0.8-0.6-1.3-0.6c-1.1,0.1-2.3,0.1-3.4,0.2c-0.3,0.1-0.7,0.1-1.1,0c0.2-0.3,0.5-0.6,0.9-0.6
	c0.8-0.3,1.6-0.5,2.4-0.8c0.4,0,0.8-0.2,1-0.5c-0.8-0.2-1.9,0-2.6-0.3c0.1-0.5,0.2-1,0.3-1.5l0.5-0.6c0.4-1.1,0.8-2.3,1.2-3.4
	c0.5-0.5,1.1-1.1,1.6-1.6c0.5-1.7,1-3.4,1.5-5c0.6,0.3,1.3,0.5,1.9,0.6c0.2-0.3,0.5-0.7,0.6-1.1c0.2-0.4,0.3-4.1,0.6-4.4l0-3.4h0.2
	c0.2,0,0.3,3.4,0.4,3.4c0.8,0.5,1.6,2.6,2.5,3c0.4,0,0.7,0.9,1,1.1c1.6,2.8,3.4,6.3,5.1,9.3c0.3,0.5,0.5,1,0.7,1.5
	c0,0.4-0.2,0.8-0.4,1.1c-0.9,0.4-1.5,1.2-1.6,2.2c0.9,0,1.9,0.1,2.8,0.3c0.3-0.1,0.6,0,0.8,0.2C296.5,164.6,296,164.5,295.8,164.5
	L295.8,164.5z M297.4,151.6c-0.1-0.1-0.2-0.2-0.3-0.3c0-0.3,0-0.6,0.2-0.9c-0.2,0.1-0.4,0.2-0.7,0.2c-1.1,0-2.2,0.2-3.2,0.1
	c-0.2-0.1-0.4-0.2-0.7-0.2c-0.1-0.1-0.2-0.2-0.3-0.4c0.1-0.5,0.5-0.9,0.9-0.9c-0.9-0.3-2.5,0.4-2.9-0.6c0.1-0.2,0.3-0.3,0.5-0.4
	c0.2,0,0.4,0,0.7,0c1-0.1,2.2-0.3,2.8-0.4c0.5-0.1,1.4-0.2,2.4-0.4l5.9-0.8c-1-0.2-2-0.2-3-0.1c-0.2-0.1-0.3-0.2-0.4-0.3
	c-0.1,0-0.3,0-0.4,0c-1.5,0.4-3,0.5-4.5,0.3c-0.3,0-0.5-0.2-0.6-0.5c0.5-0.3,1-0.6,1.6-0.8c-1.5,0-3,0.4-4.6,0.5
	c-0.6-0.2-0.4-0.9-0.1-1.2c0.3-0.3,0.6-0.6,0.8-0.9c0.8-0.9,1.8-1.7,2.7-2.6c0.6-0.6,1.2-1.1,1.8-1.7c0.6-0.5,1.2-1.1,1.8-1.7
	c0-0.9,0.1-1.7,0.4-2.5c0.8-0.4,1.6-0.8,2.4-1.3c-0.2-0.6-0.3-1.1-0.2-1.7c0.6-0.7,1.6-1.2,2.3-1.8c0.8-0.6,1.6-1.2,2.4-1.8
	c-0.1-0.2-0.1-0.5-0.1-0.7c0.7-1.4,1.6-2.8,2.6-4c0.5-0.6,1.1-1.2,1.5-1.8c0.5-0.6,1-1.3,1.5-1.8c0.2-0.2,0.5-0.2,0.7,0
	c0.1,1-0.2,1.8-0.2,2.8c0.3,0.1,0.5,0.3,0.7,0.6c0.3,2.2,0.3,4.2,0.5,6.3c0.2,0.1,0.3,0.2,0.4,0.3c0,0.3,0.1,0.5,0.2,0.8
	c0.1,0.1,0.2,0.3,0.3,0.4c0.8,2.4,1.4,4.8,1.7,7.3c0.3,0.5,0.5,1,0.5,1.6c0.7,0.2,1.4,0.4,2,0.7c0.4,0,0.8,0,1.2,0.1
	c0.4-0.1,0.8,0,1.1,0.1c-0.2,0.3-0.6,0.4-0.9,0.5c-0.3,0.1-0.7,0.3-1,0.4c0,0.3-0.1,0.5-0.2,0.7c-0.8,0.2-1.6,0.1-2.3-0.2
	c-0.6,0.4-1.2,0.7-1.8,1.1l-3.7,0.7c-0.4,0-0.8,0.1-1.1,0.3c2-0.1,4-0.2,6-0.4c0.1,0,0.4,0,0.4,0.1c0.3-0.3,0.7-0.6,1.1-0.8
	c0.2,0,0.4,0.1,0.6,0.2c0.5,0.1,1,0.3,1.5,0.5c-0.4,0.3-0.8,0.6-1.2,0.8l-5.6,0.9c0.3,0.2,0.7,0.4,1.1,0.3c2-0.3,4.3-0.6,6.2-0.8
	c0.2,0,0.5-0.2,0.7,0.1c-0.2,0.4-0.6,0.6-1,0.7c-0.4,0.2-0.8,0.4-1.2,0.6c-0.4-0.1-0.8-0.4-1.2-0.5c0,0.2,0.1,0.4,0.1,0.6
	c-0.4,0.3-1,0.5-1.5,0.5c-0.9,0.1-1.7,0.2-2.6,0.4c-0.5,0-0.7-0.5-1.3-0.5c-1.1,0.2-2.3,0.4-3.3,0.6c-0.3-0.2-0.6-0.5-0.8-0.8
	c-0.2,0-0.3,0-0.5,0.1c-3.1,0.5-5.9,1-9,1.4c-0.2,0-0.5,0-0.7,0.2c0.3,0.1,0.7,0.1,1,0.2c1.7-0.3,3.7-0.5,5.4-0.8
	c0.5-0.2,1.2-0.2,1.7,0c0.2,0.4-0.5,0.5-0.6,0.8c2.3-0.3,4.4-0.5,6.7-0.9c0.1,0.1,0.4,0.1,0.5,0.2c0.1,0.1,0.1,0.3,0,0.4
	c0.5,0,1.2-0.1,1.7-0.1c0.5-0.2,1-0.3,1.6-0.1c-1,1-2.4,1.6-3.8,1.7c-0.1-0.2-0.3-0.3-0.5-0.4c-2.3,0.6-4.8,0.9-7.2,1.4
	c-0.2-0.1-0.3-0.2-0.5-0.4C300.8,151.2,298.8,151.7,297.4,151.6L297.4,151.6z M304,188.9C304.1,188.8,303.9,189,304,188.9z
	 M239.7,141.4c0.1,0.5,0.2,1,0.4,1.5c0,0.3,0.1,0.6,0.3,0.8c0.4-0.5,0.8-1.2,1-1.8c0.4,1.7,0.7,3.1,1.2,4.8c0.3-0.3,0.4-0.8,0.7-1
	l0.9-0.1c0.1-0.8,0.3-1.7,0.6-2.4c-0.3-0.4-0.5-0.7-0.9-1c0.1-0.3,0.2-0.5,0.5-0.6c0.2,0,0.4,0,0.6,0c0.3-0.2,0.4-0.5,0.7-0.7
	c0.2,0.2,0.5,0.4,0.7,0.5c0-0.2,0-0.4,0.1-0.6c1.1-0.7,2.2-1.4,3.2-2.3c0.1-0.2,0.3-0.4,0.5-0.5c0.1-0.1,0.2-0.1,0.4-0.2
	c0.1-0.3,0.2-0.5,0.4-0.7c0.2-0.1,0.4-0.1,0.5-0.2c0.4-0.4,0.5-1,0.5-1.5c0.3-0.2,0.7-0.4,1-0.7c0.3-0.7,0.8-1.4,1.2-2.1
	c0.1,0.1,0.2,0.1,0.2,0c0.2-0.3,0.4-0.6,0.6-0.9c-0.4-0.6-1-1.2-1.6-1.5c-0.4-0.1-0.7-0.2-1.1-0.4c-0.4,0-0.7-0.3-0.9-0.6
	c-0.1-0.3,0.3-0.4,0.6-0.5c0.4-0.4,1-0.6,1.5-0.4c2.7-0.1,5.5,0.2,8.1,0.8c0.3-0.2,0.6-0.4,0.9-0.7c-2-1-4.3-1.3-6.5-0.8
	c-0.2,0-0.3,0-0.5-0.1c0.1-0.4,0.3-0.9,0.6-1.2c0.2-1.4,0.2-2.7,0-4.1c-0.1-0.2-0.2-0.5-0.3-0.7c0.3-0.7,1-0.4,1.6-0.2
	c2.3,0.7,4.8,1.5,6.9,2.1c0.3-1.4,0.6-2.9,0.9-4.4c-0.3,0.7-0.6,1.4-0.8,2.1c-0.8,0.4-1.8,0.6-2.7,1c-0.7-0.5-1.5-0.9-2.3-1.3
	c-0.1-0.1-0.1-0.2-0.2-0.3c0-0.1-0.1-0.2-0.1-0.3c-0.3-0.2-0.5-0.4-0.7-0.7c0.1-0.5,0.6-0.2,1-0.2c0.5-0.2,0.9-0.3,1.4-0.3
	c0.4-0.2,0.8-0.5,1.2-0.8c0.3-0.3,0.7-0.6,1-0.9c0.2,0,0.5,0,0.7,0.1c0.2-0.2,0.3-0.5,0.5-0.8c0.8-0.6,1.6-1.1,2.4-1.6
	c0.1-0.2,0.4-0.3,0.6-0.4c0.5,0.2,0.2,0.8,0.1,1.1c-0.4,1.1-0.5,2.4-0.8,3.6c-0.4,1.6-0.7,3.2-1.1,4.8c0.4,0.3,0.9,0.4,1.3,0.2
	c0.2,0.4,0.6,0.7,1,0.7c0.1-0.5,0.2-1.1,0.3-1.6c1-0.8,2.1-1.5,3.1-2.3c0-0.2,0-0.4,0-0.6c0.7-0.8,1.5-1.6,2.2-2.4
	c-0.1-0.5-0.1-1,0-1.5c0.5-0.8,1.2-1.5,2.1-2c1.4-0.1,2.6-0.9,3.2-2.1c-0.2-0.9-0.7-2-0.8-2.9c0.9,0.1,1.8,0,2.6-0.2
	c0.2-0.2,0.5-0.4,0.8-0.6c0.5,0.4,1.1,0.6,1.7,0.7c0.4-0.2,0.8-0.5,1.1-0.9c0.4-0.4,0.8-0.7,1.1-1c0-0.4,0-0.8,0-1.2
	c1-0.7,2.3-1.3,3.1-2c0.2-0.9,0.5-1.8,1-2.5c0-0.3,0.1-0.5,0.2-0.8c0.5-0.4,1.1-0.8,1.7-1c1.6-0.2,3.2-0.5,4.6-0.6
	c0.2,0.3,0.5,0.7,0.8,1c0.2-0.3,0.3-0.7,0.6-0.9c0.1-0.5,0.3-0.9,0.5-1.3c0.9,0.3,2,0.4,2.9,0.2c0.4,0.1,0.7,0.2,1.1,0.4
	c0.5,0,0.9-0.1,1.3-0.3c1.4,0.4,2.9,0.6,4.3,0.6c-2.5-1.5-5.1-2.9-7.7-4.1c-1.6-0.2-3.2-0.5-4.7-0.9c-1.5-0.2-2.9-0.6-4.4-0.8
	s-3.1-0.3-4.6-0.6c-1.3-0.5-2.6-0.8-4-1l-0.1,0c-1.6,0.2-3.1,0.5-4.6,0.9c-1.5,0.4-3,0.7-4.4,1c-2.8,0.7-5.5,1.6-8.2,2.7
	c-0.2,0.1-0.4,0.1-0.5,0.1c-0.3,0.5-0.5,1-0.5,1.6c-1.1,0.7-2.1,1.3-3.3,1.8c-0.7-0.1-1.3-0.2-2-0.2c-0.3,0.1-0.5,0.3-0.8,0.5
	c-1.8,1.1-3.5,2.3-5.1,3.5c-0.9,0.7-1.9,1.4-2.8,2.1c-1,0.6-1.8,1.4-2.6,2.3c-0.1,0.4-0.2,0.8-0.2,1.2c-0.7,1.3-1.5,2.4-2.2,3.7
	c-0.4,0.6-0.7,1.2-1,1.9c-0.4,0.6-0.8,1.2-1.1,1.8c0.5,0.1,0.9,0.3,1.4,0.4c0.2-0.4,0.4-0.8,0.6-1.2c0.8-0.1,1.5-0.1,2.3-0.3
	c0.5-0.5,0.8-1.1,0.8-1.8c0.3-0.7,1-1.2,1.8-1.2c0-0.6,0.3-1.2,0.8-1.5c1.3-0.4,2.6-0.4,3.9,0c1-0.1,2-0.2,3-0.3
	c0.8-0.5,1.5-1.1,2.1-1.9c0.2-0.2,0.5-0.3,0.9-0.3c0.2,0,0.4,0.1,0.6,0.1c0.6-0.5,1.2-1.1,1.7-1.7c0.5,0.1,1,0.1,1.5,0.2
	c2-0.7,4.2-1.6,6.5-2.2c0.3-0.2,0.7-0.2,1,0c-0.1,0.1-0.3,0.2-0.4,0.2c-0.2,0.1-0.4,0.1-0.5,0.2c-0.9,0.5-1.9,0.9-2.9,1.3
	c-1.3,0.6-2.6,1.2-3.9,1.8c-0.8,0.7-1.7,1.2-2.5,1.8c-0.3,0.2-0.5,0.4-0.8,0.6c-0.9,0.3-1.8,0.4-2.7,0.5c-1.8,1-3.7,1.9-5.5,2.9
	c-0.5,0.5-0.9,1.2-1.5,1.7c-0.7,0.3-1.4,0.5-2.1,0.7c-2.1,1.7-4,3.6-6.1,5.3c-0.2,0-0.5,0-0.7,0.1c-0.1,0.1-0.1,0.4-0.2,0.5
	c-0.9,0.6-1.3,1.6-2.1,2.3c-0.1,0.8-0.3,1.7-0.4,2.5c-0.5,0.8-0.9,1.8-1.1,2.7c0.7,2.7,1.7,5.4,2.8,8.1
	C240.1,139.5,239.9,140.5,239.7,141.4L239.7,141.4z M240.2,140.9C240.2,140.8,240.2,141.1,240.2,140.9z M297.5,139.4
	c-0.2,0-0.4,1.7-0.7,1.7c0.2-0.3,0.4,0.1,0.7-0.1c0.8-0.8,1.5-1.2,2.3-2c1.1,0,2.2,0.2,3.3,0.2c0.2-0.4,0.6-0.7,1.1-0.8
	c0.1-1,0.1-2,0.2-3c0.1-0.3,0.3-0.6,0.6-0.6c1.6-1,3.2-1.6,4.9-2.5l0.1,0c0.1,0,0.1,0.1,0.1,0.1c0,0.2-0.2,0.4-0.3,0.5
	c-0.5,0.4-1,0.9-1.5,1.3c-0.6,0.6-1.3,1.2-1.9,1.7c-0.2,1.8-0.7,3.3-0.8,5.2c-0.1,0.2-0.3,0.4-0.5,0.6c-0.1,0-0.3-1.4-0.4-1.4
	C302.4,139.5,299.9,139.2,297.5,139.4L297.5,139.4z M467.9,52.9l-1.8,1.3l0,0.8l7.3-5.6l4.7,0.2l2.3-3c0,0,1.3-0.1,2.3-0.3
	c1-0.1,1.9-0.2,2.9-0.4c1.5-0.3,3-0.4,4.4-0.5c0,0,0.4,0,0.2,1.9l-0.6,5l-1.9,5.8l-0.6,1.2c-0.9,0.2-1.8,0.3-2.7,0.3
	c-3.3-0.1-6.5-3.5-9.8-3.2C472.5,56.3,468.3,52.9,467.9,52.9L467.9,52.9z M532.2,77.3c-0.3,0-1,8.9-1.9,12.3
	c-0.7,2.9-1.1,5.9-1.3,8.9c0,0.5-0.1,2.7-0.3,4.6c-0.1,1.1-0.3,2.4-0.4,3.7c-0.2,1.9-0.2,3.8-0.1,5.7c0,0.3-0.1,1-0.1,1.4
	c0,0.4-0.7,1.3-0.7,1.8c0,0.8,0.1,2.2,0.1,3c-0.3,5.7,0,10,0,13.5c-0.2,7.5,0,15,0.7,22.5c0.1,1.1,0.3,2.2,0.4,3.5
	c0.1,1.5,0.5,2.8,0.7,4.5c0.4,4.4,1.1,9.4,1.3,14c0.4,5,0.2,10.1-0.4,15c-0.2,1-0.4,2.3-0.7,3.6c-0.2,0.8-0.7,1.7-0.9,2.5
	c-0.6,3.8-2,7.4-3.8,10.7c-0.4,0.6-0.8,1.1-1.3,1.6c-0.7,0.8-1.4,1.5-2.3,2.1c0,0,0.1-2.3,0-5.1c-0.1-3.3-0.8-7.1-0.8-7.9
	c-0.2-2.4-0.7-4.3-0.1-5.3s1.5-1.4,1.7-1.9c-0.6,0.1-1.2-0.1-1.8-0.3c-1.2-2.6-2-5.3-2.3-8.2c-0.2-1.3-0.4-3.2-0.6-4.7
	c-0.6-4.1-1-8.2-1.3-12.2c-0.3-4-1-8.8-1.2-13.9c-0.1-3,0.2-8.9,0.3-14.6c0-2.1,0-4.8-0.2-8c-0.1-2-0.3-3.9-0.4-5.6
	c-0.1-2.3,0.4-4,0.3-5.8c-0.1-2.1-0.5-4.3-0.6-5.8c0.1-3-0.4-6-1.3-8.9c-0.4-0.6-2.1,1.1-2.5,2.4c-0.1,0.3-1,1.6-2.1,3.8
	c-0.6,1.2-1.2,2.8-1.9,4.3c-0.6,1.3-1.2,2.8-1.9,4.3c-1.2,2.4-1.7,2.8-2.9,5.4c-2.6,6.4-4.6,12.9-5.9,19.7c0,0,4-12.4,4.9-14
	c-0.8,2.1-1.4,4.2-2,6.4c-0.5,2-0.7,4.7-1.3,7.3c-0.5,2.2-1.3,4.7-1.7,6.8c-0.9,4.1-1.2,6.8-1.5,9.7c-0.2,1.3-0.5,2.6-0.9,3.8
	c-0.4,1.4-0.8,3.5-1.3,4.7c-0.7,2-1.5,4-2.5,5.9c-0.4,0.9-1.3,1.5-2.2,1.5c-0.5-0.9-1.9-0.1-2.4-0.2c-0.9,0.2-1.7,0.8-2,1.7
	c-0.4,0.7-1.1,1.3-1.4,1.8c-0.3,0.5-0.5,1.1-0.7,1.3c-1.5,0.7-3,1.3-4.5,1.8c-1.3,0.4-2.5,0.9-3.6,1.6c-1,0.8-1.3-0.5-1.4-1.1
	s0.4-8.4,0-9c-0.7-0.8-0.8-1.9-0.4-2.9c1.2-1.3,2.4-2.7,3.4-4.2c0.5-0.8,1-1.2,1.5-2.1c0.3-0.5,0.5-1.3,0.8-1.8
	c1.2-2.3,2.8-5.5,3.7-7.3l-2.3,3l-4.4,6.2c-0.1-0.6-0.2-1.3-0.2-1.9c0-0.7,0.1-2.8,0-5.1c0-1.7-0.4-3.8-0.5-4.9
	c-0.2-2.8-0.2-5.7,0-8.5c0.2-1.3,0.6-1.7,0.8-3.8c0.3-2,0.5-4.1,0.4-6.2c0-1.1-0.3-2.2-0.4-3.2c0-0.7-0.1-1.4-0.1-2.1
	c-1.3-6.4-1.6-13-0.9-19.6l-1,4.3c0,0-0.1-2.9-0.1-6.8c0-1.5,0.1-3.4,0.1-5c0-4.2-0.2-8.8-0.2-10.1c0-2.2-0.3-3.2,0.3-4.1
	c0.4-0.4,0.9-0.8,1.5-0.9c0.5-1.1,0.7-2.4,0.5-3.6c-0.6-0.8-1.1-1.8-1.3-2.8c-0.3-0.7-0.5-1.5-0.6-2.3c0,0,7.7-0.5,9.2-0.7l2.2,0.2
	l2-0.4l-0.8,5.1c0,0-0.3,5.9-0.6,12.8c-0.1,2.3-0.5,5.2-0.6,7.6c-0.1,2.3,0.1,4.1,0.2,6c0.1,2.2,0.1,4.4,0.2,5.9
	c0.2,2.2,0.1,4.7,0.3,6.5c0.4,4.9,0.9,7.4,0.9,7.4c0,0.6,0.2,1.1,0.5,1.6c0.8-0.8,1.5-1.8,2-2.9c1.4-3.2,3.1-6.2,5-9.1
	c-0.2,0.7-0.4,1.3-0.5,2c-0.2,0.9-0.3,1.9-0.5,2.8c-0.1,0.6-0.3,1.2-0.6,1.7c-0.3,0.6-0.2,1.3-0.5,2c-0.3,0.6-1,1.5-1.4,2.2
	c-0.3,0.4-0.4,0.8-0.6,1.3c0.9-1.1,1.8-2.2,2.5-3.4c0.3-0.4,0.3-0.9,0.6-1.3c0.2-0.3,0.6-0.7,0.8-1c0.5-0.8,0.9-1.7,1.2-2.6
	c0.6-2.8,1.8-5.5,3.5-7.8l3.1-5c0.9-1.4,0.9-2.2,1.9-3.8c0.9-1.5,2.1-2.8,3.1-4.4c1.9-2.9,3.7-5.9,5.3-9.1c-0.5,2.5-1.4,4.9-2.6,7.1
	c-0.9,1.4-1.5,2.8-2,4.4c0,0,0.9-1.2,2-2.8c0.3-0.5,0.8-1.5,1.2-2.1c0.9-1.2,1.7-2.4,2.3-3.7c0.9-2.3,1.7-4.7,2.1-7.2
	c0.5-2.6,1.9-5,4-6.8c0.6-0.3,1.2-0.4,1.9-0.4c3.3-0.7,8.5-1.4,8.5-1.4c0.4,0.2,0.6,0.5,0.8,1c0.5,0.1,1,0,1.4-0.4
	c1-0.8,2.2-4.3,2.6-4.6C532.8,74.4,532.4,77.3,532.2,77.3L532.2,77.3z M565.4,179.3c-0.3-0.4-0.5-0.7-0.8-1
	c-0.8-1.1-1.2-1.7-2.1-2.8c-1.7-2.1-3.2-4.4-4.4-6.8c-1.1-2-2-4.1-2.7-6.3c-0.2-0.5-0.2-1.1-0.4-1.7c-0.7-2.4-0.8-5-0.5-7.5
	c0-0.3-0.1-0.5-0.1-0.8c0-0.7-0.1-1.1-0.1-1.7c0-0.6,0.2-1.4,0.2-2c0.1-2.2,0.2-3.7,0.2-3.7l-0.9,2.1l-0.7,1.1l-0.3,1.2
	c0.1-2.5,0.7-4.9,1.6-7.2c0.2-1.5,0.5-3.1,0.9-4.6c0.2-0.8,0.2-1.7,0.4-2.6c2.8-9.7,8.2-24.6,8.7-25.9c0.8-2.1,0.3-1.7,0.3-1.7
	c-0.4-0.4-0.7-0.9-1-1.4c-0.2-0.4-0.4-1.1-0.7-1.6c-0.6-0.9-1-2-1.5-2.9c-0.6-1-1.3-1.8-1.4-2.1c-0.3-0.5-0.1-0.7-0.9-0.7
	c-0.8,0.1-1.5,0.2-2.2,0.5c-0.7,0.2-1.4,0.3-2.2,0.3c-1.4,0-2.7-0.4-3.9-1.1c-0.4-0.4-0.9-0.6-1.3-0.9c-0.3-0.4-0.8-0.7-1.3-0.9
	c-0.5,0.1-1,0.4-1.4,0.7c-1,0.6-2.1,1.1-3.3,1.5c-0.5,2.1,1,3.6,0.8,6.5c-0.2,1.9-1.7,10.3-3.3,19.1c-0.4,2.1-0.6,4.3-0.7,6.4
	c-0.1,1.5-0.4,3.3-0.5,4.8c-0.1,1.6,0.1,3,0.1,4.5c-0.1,2.3,0.2,4.6,0.1,6.7c-0.1,1.8-0.5,3.3-0.6,4.7c-0.1,1.5,0.1,3,0.5,4.5
	c0.1,1,0.4,2,0.9,2.9c0.8,1.1,1.7,2.1,2.7,3c0.1,0.2,0.3,0.3,0.4,0.5c0.1,0.1,0.1,0.2,0.2,0.2c0.2,0.3,0.3,0.7,0.3,1l-1.6,3.2
	c0,0.9,0.3,1.8,1,2.5c2.3,2.6,4.3,5.4,6.1,8.3c1.7,0.4,3.4,0.9,5,1.7c1.6,0.7,2.5,1.3,3.4,1.7c0.6,0.3,1.3,0.5,2.3,1
	c0.5,0.3,1.1,0.8,1.9,1.2c0,0,0.8-0.2,1.8-0.4c0.5,0,1-0.2,1.3-0.6c0.4-0.6,0.5-1.3,0.4-2C565.8,179.8,565.6,179.5,565.4,179.3
	L565.4,179.3z M547.4,109.7c0.1,2.5-0.1,5.1-0.8,7.5c-0.3,0.7-1,2.2-1.5,3.5c-0.2,0.6-0.2,0.8-0.4,1.4c-0.5,1-0.9,2.1-1.2,3.2
	c-0.3,0.6-0.5,1.3-0.6,1.9c-0.5,3.3-0.8,5.9-0.8,5.9c0-2.2,0.2-4.4,0.4-6.6c0.2-1.1,0.5-2.4,0.8-3.6c0.3-1.3,0.6-2.6,0.9-3.8
	c0.3-1,0.6-1.5,0.8-2.4c0.3-1.3,0.4-2.5,0.7-3.1c0.5-1,0.7-2,0.8-3c0.3-1.8,0.4-3.6,0.4-5.4c-0.2-1.5-0.2-2.9-0.2-2.9
	c0.2,0.6,0.5,1.1,0.6,1.7C547.4,105.9,547.5,107.8,547.4,109.7L547.4,109.7z M609.4,111.1c-0.2-0.3-0.5-0.6-0.9-0.7
	c-0.5,0.1-1-0.2-1.2-0.6c-0.1-0.4-0.5-1.4-0.6-2c-0.2-1.1-0.2-2-0.5-2.9c-0.2-0.4-0.4-0.8-0.7-1.2c-0.8-1.2-1.6-2.8-1.8-3
	c-0.8,0-1.5-0.1-2.3-0.2c-0.6-0.3-1.3-0.6-1.9-0.9l-2,1c0,0-2,1.3-3.1,2c-1.2,0.8-3.3,3.3-5.4,4.8c-2.4,1.4-4.8,2.9-7.1,4.5
	c-1.7,1.3-3,3-4.1,4.8c-0.8,1.6-2,4.1-3.1,6.8c-0.3,0.7-0.6,1.8-0.8,2.5c-0.3,0.7-0.6,1.1-0.8,1.8c-0.3,0.9-0.6,1.9-0.8,2.8l1.4,0.1
	c0.3,0.1,0.5,0.3,0.7,0.5c-0.4,0.2-1.5,0.2-1.8,0.4c-0.8,1-1.3,2.1-1.6,3.4c-0.3,1.7-0.4,3.5-0.3,5.3c-0.2,2.2,0,4.5,0.6,6.7
	c0.5,1.9,0.7,3.9,0.7,5.9c0.2,3.5,0.9,6.9,2.1,10.1c2.6,6.4,3.7,7.4,5.6,8.7c3,2.1,4.6,6.9,10.5,7.5c2.6,0.5,5.2,0.7,7.8,0.6
	c0.6-0.3,1-0.8,1.3-1.3c0.6-0.5,1.3-1,2.1-1.2c0.6,0,1.2,0.3,1.7,0.6c0.7,0.3,1-0.3,3.2-1.1c1.2-0.5,3.3-1.5,3.3-1.5
	c0.5-0.4,1-1,1.3-1.6c0.3-0.4,0.6-0.7,0.9-1.1c0.1-0.2,0.2-0.5,0.3-0.7c0.3-0.4,0.5-0.9,0.7-1.3c1.3-2.7,0.5-2.9-1.1-2
	c-0.7,0.5-1.5,0.9-2.3,1.2c-0.5,0.1-1.1,0.1-1.6,0c-1.2,0.1-2.4,0-3.6-0.2c-1.6-0.4-3.3-0.7-4.9-0.9c-1.4-0.4-2.8-1-4-1.8
	c-1.1-0.5-2.1-1-2.1-1c-1.1-0.1-2.2-0.4-3.1-1.1l2.8-0.4c-0.5-0.6-1-1.1-1.6-1.6c-0.3-0.2-0.3-0.7-0.6-1.1c-0.4-0.4-0.9-0.8-1.3-1.2
	c-0.5-0.8-0.9-1.7-1.2-2.6c-0.2-0.8-0.4-1.6-0.5-2.4c-0.3-0.9-0.5-1.8-0.5-2.7c-0.3-1.9,0.3-3.9,1.6-5.4c1.6-1.6,3.6-2.7,5.9-3.1
	c2.4-0.6,4.2-0.5,6.3-1.1c1-0.4,2-0.9,3-1.5c1.3-0.7,2.5-1.5,3.7-2.4c1.5-1.4,3.2-2.7,4.9-3.9l1.1-5.4c0.3-1.7,1.3-7,1.3-7.6
	c-0.5-1.3-1.1-2.6-1.8-3.8L609.4,111.1z M603.2,125.4c-0.3-1.7-0.7-3.3-1.4-4.9c-1,2.2-1.7,4.6-2.1,6.9c-0.1,0.8-0.2,1.7-0.2,2.6
	c0.2,0.6,0.2,1.2,0,1.7c-0.2,0.5-0.4,1.1-0.6,1.6c-1.4,1.3-3,2.2-4.8,2.8c-1.5,0.5-3,0.7-4.5,0.5c-0.4,0-0.8,0.4-0.8,0.8
	c0,0,0,0,0,0l-0.3,3.8c-0.4-0.7-0.6-1.6-0.4-2.5c-0.1-2.3,0-4.6,0.6-6.8c0.2-0.8,0.8-2.3,1-3.2c0.2-0.9,0-1.3,0.2-2.2
	c0.8-2.7,1.7-5.6,2.7-7.9c0.6-1.9,1.6-3.6,2.9-5.1c1.3-1.4,5.1,2.7,6.7,5c0.2,0.2,0.4,0.5,0.7,0.7c0.1,0.2,0.2,0.5,0.3,0.8
	c0.3,0.4,0.5,1,0.4,1.5c0,0.9,0.1,1.7,0.2,2.6l-0.1,1.1l0.2,0.6L603.2,125.4z M675.6,111.8l1.7,2.3c0,0-0.3,2.4-1.3,6.3
	c-0.6,3.1-2.1,6-4.3,8.3c-1.3,0.9-3.3,0.4-3.7,0.7c-0.4,0.4,0.3,0.7,0.2,1.4c0,0.2-0.3,0.7-0.7,1.7c-0.5,3.6-1.3,7.2-2.4,10.7
	c-1,2.9-1.8,5.8-2.3,8.8c-0.2,0.7-0.1,1.2-0.2,1.7c-0.1,0.5-0.4,1-0.8,1.3c-2,0.7-3.7,2-5,3.7c-2.2,2.9-4.3,5.9-6.2,9
	c-0.9,1.5-1.6,2.7-2.4,3.8c-0.5,0.7-1.2,0.8-1.5,1.3c-2.6,3.6-2.8,3.8-4.3,4c-0.4,0,0,0.4,0,0.4c2.5,1.2,4.5-1.9,4.5-1.9l-0.1,1.4
	c-1.7,1.3-3.2,2.9-4.6,4.5c-0.8,0.7-2.6-0.6-4-2.3c-1.2-1.4-2.1-3-3-4.7c-0.6-1.2-1.1-3.2-2-5.3c-0.1-0.5-0.1-1-0.1-1.4
	c-0.3-1.1-0.6-2.1-0.9-3.2c-0.6-1.4-1-0.1-2.3-2.1c-0.3-0.5-3.3-14.3-5.3-25.6c-0.4-2.3-0.7-4.5-0.9-6.4c-0.2-2.5-0.4-5.1-0.3-7.6
	c-0.1-1.6-0.3-3.1-0.7-4.6c-0.5-2-1.9-6.6-2.5-9c-0.7-3-2.8-6.9-3-7.6c-0.1-0.6-0.1-1.2,0-1.8l7.1,0.6l1.1,1.1
	c0.4,0.4,0.8,0.7,0.5,1.1c-0.5,0.4-1,0.8-1.5,1.2l-1.1,0.9c1.3-0.3,2.5-0.8,3.8-1.3c0.8-0.6,1.7-0.9,2.7-1c1.3,0.6,2.5,1.6,3.3,2.7
	c0.3,0.8,0.8,1.5,1.4,2.1c0.6,0.5,1.4,0.9,2.3,1.5c0.6,0.4,1.2,1,1.7,1.5l-0.1,2.4l-0.2,2.6c0,0-0.4,0.3-0.5,0.4
	c-0.8,0.6-1.4,1.5-1.8,2.4c-0.1,0.7-0.1,1.4,0,2.1c0,0.8-0.3,2-0.1,2.8c0.2,1,0.5,2,0.8,3l1,5.5c0,0-0.2-2-0.2-4
	c0-0.9,0-1.9-0.1-2.8c-0.4-2-0.2-4.1,0.6-6c0,0.4,0.2,2.3,0.3,4.3c0,0.7,0.4,1.3,0.5,2c0,0.8,0.1,1.6,0.2,2.4c0.6,2.6,1,5.3,1.2,8.1
	c0.3,2.4,0.7,3.6,1,6c0.3,2.3,0,3.8,0.2,8.3c-0.3-0.4-2.6-4.4-2.6-4.4c0.3,1.7,0.9,3.5,1.6,5.1c0,0.4,0,0.7,0,1.1
	c0.5,0.9,1.1,1.7,1.9,2.3c0.1,0,0.3-0.3,0.5-0.3c0.6,0.1,1,0.2,1.6,0.3c0.5,0,0.9,0,1.4,0.1c0.6,0.2,1.2,0.4,1.8,0.8
	c-0.6-0.7-1.2-1.2-2-1.7c-0.7,0-1.5,0-2.2-0.2c0.4-0.9,0.8-1.8,1.3-2.6c0.4-1,0.7-2.3,1.3-3.9c2.2-4.7,4.7-9.2,7.6-13.6
	c2.5-5.2,4.6-10.6,6.4-16.2c0.3-0.9,0.5-1.8,0.5-2.7c-0.1-1-0.4-2.2-0.5-3.1c0.1-0.9,0.1-1.7,0-2.6c-1-2.9-2.2-5.5-2.5-6.6
	c-0.2-0.9-0.4-1.7-0.6-2.6l0.7-0.6c0.3-0.3,0.7-0.6,1.1-0.8c0.7-0.2,1.4,0,1.9,0.5c0.5,0.4,1.1,0.7,1.7,1c0.4,0.2,0.8,0.5,1.3,0.7
	c0.4,0.2,0.8,0.3,1.2,0.5c1.7,0.8,3.3,1.4,3.3,1.4c0.2,1.1,0.4,2.2,0.7,3.2c0.1,0.9,1,1.5,1.9,1.4c0.1,0,0.2,0,0.3-0.1
	c0.6-0.2,1.1-0.6,1.5-0.9l1.8,2.9L675.6,111.8z M841.9,68.8c0,0.1-8.5,0-15.8,0.4c-2.3,0.1-2.2-0.1-4.8-0.1c-1.2,0-2.6,0-3.9,0.1
	c-1.3,0-2.6,0-3.9-0.2c-1.6,0-3.1,0.3-4.8,0.3c-1.4,0-3.8-0.6-4.6-0.6c-5.9-0.2-12.2-0.2-18.5-0.3c-2.6,0-5.3,0.2-7.8,0.2
	c-1.6,0-4.1,0.1-5.7,0.1c-1.1,0-1.7-0.2-2.8-0.2c-1.1,0-2.8,0-3.9,0c-2.5,0-5.3-0.6-7.7-0.6c-2.6,0-4.9,0.4-7.4,0.4
	c-5.5,0-9.4-0.1-11.8-0.1c-1.3,0-2.7,0.1-4,0.1c-1.2,0-2.7-0.1-3.8-0.1c-2.5,0-4.9,0.3-6.7,0.3c-1.7,0-3.4,0.2-5.1,0.6h-0.1
	c-2,0-4.1-1.2-6.2-1.3c-2.1,0.1-18.7,0.4-18.7,0.4l-0.3-0.3c-0.1,0.2-0.1,0.2-0.1,0.2c-3.3,0.2-8.3,0.7-11.3,0.5
	c-5.9-0.3-12.2,0.1-13,0c-0.9,0-1.8,0.3-2.6,0.7c-2.9,0.1-5.8,0-8.6-0.4c-0.8,0-1.6-0.5-2.7-0.7c-1.4,0-2.7,0.3-3.9,0.8
	c-2,0.6-3.9,1.3-5.7,2.2c-1.1,0.6-2.2,1.1-3.4,1.3c0,0-7.6-0.1-9.1-0.1c-0.4,0.2-0.7,0.4-1,0.6c-0.7,0-1.3,0-2-0.1
	c-0.4-0.2-0.9-0.4-1.3-0.7c-1.2-0.8-2.5-1.6-3.9-2.3c-0.2-0.1-0.5-0.3-0.4-0.4c0.4-0.4,0.8-0.8,1.2-1.1c0.3-0.3,0.6-0.6,0.9-1
	l1.4-1.1l0.1-1.2c-1.3,0.5-2.6,1-3.9,1.7c-1.3,0.6-2.6,1-3.9,1.4l-21.2-0.2l4.8,0.7c-5.6-0.1-11.2-0.5-16.8-1.3
	c-0.2-0.2-0.4-0.4-0.5-0.7c-5.6,0-7.7-0.8-13.5-0.7c-2.6,0.1-5.3,0.1-7.7,0.3c-3.2,0.4-6.5,0.6-9.8,0.6c-2.5,0.1-4.7-0.2-5.4,0
	c-0.6,0.2-1.2,0.3-1.9,0.4c-0.3,0-0.7,0.2-0.7,0.6c-0.8,0-4.1,0.1-8.1,0.3c-1.9,0.1-7.1,0.7-11.4,1.1c-5.9,0.5-12.9,0.5-16.1,0.5
	c-6.2,0-28.8,1.9-37.7,1.5c-1.8-0.1-4,0.1-6.1,0.2c-1.5,0-3.1,0-4.6,0.2c-2.3,0.4-3.6,0.6-5.2,0.9c-1.7,0.3-3.2,0.8-4.8,1.1
	c-8.3,1.5-9.9,4.9-10.8,6.1c-0.9,2.6-1.4,5.4-1.7,8.1c0.7,0.2,1.3,0.4,1.9,0.8c0.2,0.1,0.6,6,0.9,10.4c0.3,0.9,0.4,1.8,0.2,2.8
	c-0.4,0.3-0.9,0.5-1.3,0.7c-0.4,0.3-0.9,0.5-1.4,0.7c-0.2-0.1-0.3-0.2-0.5-0.3c-0.3-0.1-0.6-0.1-0.9,0c-0.3,0.2-0.6,0.4-0.9,0.6
	c-1,0.5-1.7,1.4-2,2.5c-0.9,2.5-1.5,5.1-1.8,7.8c0,1,0.4,4.8,0.8,8.8c0.3,2.9,0.7,6.1,0.9,9.1c0.3,4.6,0.4,9.2,0.2,13.9
	c-0.3,4.4-1.9,11.6-2.2,14.4c0,0.5,0.1,0.9,0.3,1.4c1.1,6.7,1.8,13.5,2,20.2c0,1.6,0.3,3.1,1,4.6c1.1,3.8,1.8,7.6,2.1,11.5
	c0.2,2.1,0.2,4.1,0,6.2c-0.1,0.4-0.1,0.5-0.2,0.3c-1.4-1.8-3.1-3.5-4.8-5.1c-0.9-0.8-1.7-1.7-2.4-2.7c-0.3-0.5-0.3-1.3-0.6-1.8
	c-0.6-1-1.2-2.1-1.6-3.2c-0.3-0.8-0.5-1.8-0.8-2.6c-1.5-3.7-2.9-10.9-4.1-14.4c-1-3.1-1.7-6.2-2.2-9.4c-0.2-2.1-0.4-4.3-0.4-6.5
	c0-0.9-0.3-2-0.5-3.6c-0.2-1.6-0.3-3.8-0.5-5.8c-0.5-4.3-1.2-9.2-1.6-13c-0.4-3-0.3-5.4-0.5-6.2c-0.6-2-0.3-4.2,1-5.9
	c0.2-0.3,0.1-0.9,0.3-1.2c0.2-0.2,0.4-0.4,0.6-0.7c0.2-1.2-0.1-2.4-0.8-3.4c-0.7-1.1-2.4-4.5-3.8-6.7c-0.9-1.4-1.4-3-1.3-4.7
	c0,0,0.6-10.4,0.7-11.5c0.1-1.1,0.6-3.2,0.6-3.2l-1.7-0.3c-0.7-0.1-1.1-0.7-1-1.3c0-0.3,0.2-0.5,0.4-0.7c0.9-0.5,1.5-1.3,1.7-2.3
	c0.3-0.8,0.7-1.5,1.2-2.2l-0.6,0.4c-0.4,0.3-0.9,0.5-1.4,0.6c-0.9,0.2-2.5,1.5-3.5-0.1c-0.6-1-1.7-1.5-2.8-1.4
	c-0.4-0.1-0.7-0.1-1.1-0.1l0-2.5c-0.2-0.7-0.1-1.4,0.3-2c0.5-0.6,1.6-2,1-2.5c-0.3-0.2-0.8-0.1-1,0.2l0,0.1c0,0-9.8,0.3-10.9,0.4
	c-1.5,0.1-2.9,0.3-4.4,0.8c-2.6,0.5-5.2,0.6-7.8,0.3c-1.3-0.1-2.8-0.5-4.4-0.7c-2.7,0.1-5.4,0.3-8.1,0.7c0,0,9.5,0.1,6,1.2
	c-3.5,1.1-10.5-0.5-12.7,0.2c-1.6,0.4-3.3,0.6-4.9,0.4c2.9-1.1,5.7-2.3,8.4-3.8c2-0.6,4.1-1.1,6.2-1.4c3.2-1.2,6.6-2,10-2.5
	c2.4-0.2,4.8-0.8,7.1-1.8c1.6-0.8,3.4-1,5.1-0.5c1.3,0.2,3.5-0.9,5.5-0.7c1,0.2,2,0,2.9-0.5c2.5-2.9,5.1-1.6,6.9-1.6
	c0.6,0.1,1.1-0.4,1.2-1c0-0.3-0.1-0.6-0.3-0.8c4.3-0.4,8.6-0.6,12.9-0.5c1.1,0,2.1-0.2,3.2-0.3c-0.6-0.2-1.3-0.3-1.9-0.4
	c-3-0.1-5.9-0.4-8.9-0.8c-0.5-0.3-1.2-0.5-1.8-0.6c-0.4-0.1-0.7-0.4-0.9-0.7c-0.5-0.1-0.9-0.3-1.3-0.7c0.1-2.5-2.6-8.2-2.1-9.3
	c0.6-1,1.5-1.9,2.6-2.4c0.2,1.5,0.6,2.9,1.2,4.3c0.1,0.6,0.2,1.1,0.2,1.7c0.2-0.5,0.3-1.1,0.3-1.6c0-0.4-0.2-0.4-0.2-0.7
	c0.1-2.3,0.3-6.9,0.3-10.6c0-1.1,0.2-2.1,0.4-3.2c0.5-2.7,2.6-9.3,2.8-10.4c0.1-1.1,0-2,0.4-5.6c0.5-4,1.4-8.8,1.5-9.5
	c0.3-0.9,0.6-1.9,1-2.8c0.3-0.9,0.7-1.7,1.3-2.5c-0.3,1.2-0.5,2.4-0.7,3.7c0,0.8,0.2,1.8,0.2,2.5c0,0.5-0.2,0.9-0.2,1.3
	c-0.1,1,0.1,2.1,0.4,3.1l0.4-3.5c0.3-1.1,0.7-2.2,1.3-3.2c0.5-0.6,0.9-1.4,1.2-2.2l0.1-2.1c0.1-0.1,0.3-0.3,0.3-0.5
	c0-1,0.1-2.1,0.2-3.1c0.3-0.2,8.7-6.8,8.9-6.7c0.4,0.2-1.1,9.6-1.3,12.4c-0.3,1.3-0.4,2.7-0.3,4c0.2,2,0,6.2,0.1,6.6
	c0.8,0.9,1.7,1.8,2.8,2.5c0,0-0.1,11.5-0.3,13.2c-0.4,1.3-1,2.4-1.9,3.4c-0.9,0.9-1.5,2-1.9,3.1c-0.1,1.4,0.2,2.9,0.8,4.2
	c0.6,1.5,1.2,2.9,2,4.3c0.7,1.1,1.4,2.1,2.4,2.9l-1.6-4.4c0.8,0.3,1.7,0.4,2.5,0.2c1.6-0.3,4.5-0.6,5.3,0.3c0.1,2.1,0.2,3.7-0.5,4.1
	c-1.2,0.7-1.2,2.6-0.7,5c0,1,0.8,1.9,1.8,2c0.2,0,0.4,0,0.6-0.1c1.7,0,3.3-0.3,4.9-0.9c4.1-1.1,8.3-1.7,12.5-1.6
	c2.9-0.2,5.9-0.3,8.8-0.1c3,0.1,6.7-0.5,12.5-0.6c3.1-0.1,6.2-0.3,9.4-0.3c2.9,0,5.9-0.4,8.6-0.5c3-0.1,5.8-0.1,8-0.3
	c4.9-0.4,9.8-0.4,14-0.4c3.1,0.1,6.1,0.4,9.1,0.8c4,0,6.7,0.1,6.7,0.1c-4.6,0.2-6.7,0.8-10.1,0.9c-2,0-3.9-0.2-5.8-0.5
	c-0.7-0.1-2.2,0.1-3.8,0c-2-0.1-3.9-0.1-5.9,0c-4.5,0.3-6.8,0.9-8.9,0.8c4.1,0.3,11.5,1,15.3,1c4.6,0,9.2-0.4,13.8-1.2
	c1.1-0.3,11.6-1.2,13.7-1.1c5.9,0.2,7.6-0.2,9.5,0c2.1,0.1,4.2,0.1,6.3,0c0.8,0,2.9,0.2,5.8,0.2c2,0,4.8-0.3,7.4-0.2
	c8.8,0.2,16.6-0.2,24.9,0.1c2.7,0.2,5.4,0,8-0.6c1.4-0.5,2.9-0.8,4.3-0.8c5.8,0.4,11.5,0.4,17.3,0c2.2-0.4,4.4,0,6.3,1.1l4.8,1.4
	l-4.7-0.4l-1.8,0.2c-0.6,0.1,3.8,0.6,5.2,1.3c4.1,0.4,8.2,0.4,12.3,0.2c3,0.1,6.1-0.1,9.1-0.6c2.6-0.5,5.3-0.8,7.9-0.7
	c0,0,9.8,0,9.3,0.2c-0.4,0.3-4.4,0.7-5.8,1.1l-1.7,0.4c1.2,0,4.8-0.1,9.8-0.2c3.2-0.7,6.4-1.1,9.6-1.1c1.3,0.1,1.7,0.1,1.7,0.1
	l20.4,0.6c0,0,2.8-0.4,4.7-0.5c1.8,0.1,3.6,0.4,5.3,0.8c0.4,0.1,0.7,0.2,0.9,0.5c2.2,0,4.8,0.1,7.7,0.2l8.9,0.3c0.9,0,1.7,0,2.6,0
	c0.8,0,1.7,0.2,2.5,0.2c1,0,1.9,0.2,2.9,0.3c1.2,0,2.4-0.1,3.6,0c2.2,0.1,5.3,0.5,7.6,0.6c10.3,0.4,21.2,0.8,31.5,1.2
	c2.6,0.1,5.8-0.1,8.3,0c2.5,0.1,4.3,0.5,6.7,0.5l2.3,0.1c0.5,0,1-0.1,1.5-0.1c0.4,0,0.7,0.2,1.1,0.2l2.2,0.1c1.7,0.1,3.9-0.1,5.4,0
	c1.2,0,1.9,0.3,3.1,0.3c8.7,0.3,15.3,0.7,15.8,0.7C842.2,67.7,841.9,68.8,841.9,68.8L841.9,68.8z M722.9,123.4
	c-0.4-1.5-1.1-3-1.8-4.4c-0.8-1.7-1.4-3.5-1.8-4.7l-1.1-2.7c-0.2-0.7-0.5-1.2-1-1.7c-0.3-0.3-0.5-0.5-0.9-0.6
	c-0.7-0.3-1.4-0.5-2.1-0.5c-0.7-0.1-1.3-0.5-1.5-1.1c0,0,0.1-1.8,0.1-3.6c-0.1-0.5-0.4-0.9-0.9-1c-0.3-0.5-1.5,0.2-4.3-1
	c-0.8-0.4-1.6-0.7-2.5-0.8c-2,1-3.9,2.4-5.5,4c-2.1,2.4-4.6,4.5-7.4,6c-3.3,1.7-6.1,4.3-8.1,7.4c-2.1,2.8-3.4,6.2-3.7,9.7
	c0.2,3.4,1.6,3.8,0.2,7.9l-0.6-3.3c0,0-0.6-1.1-1.2,3.9c-0.4,4.2-0.4,8.5,0,12.7c0.3,1.1,0.8,2.2,1.3,3.2c0.6,1.3,1,2.7,1.4,4
	c0.4,1.2,1,2.5,1.3,3.8c0.6,2,1.1,4,1.5,6c0.6,2,1.7,3.7,3.3,5c0.2,0.2,1,1,2.2,2.2c1.6,1.9,3.6,3.4,5.8,4.5
	c1.6,0.7,3.2,1.3,4.8,1.7c1.4,0.3,2.8,0.3,4.3,0.2c1.5,0,2.9-0.3,4.2-0.9c3.1-1.6,6.2-3.1,9.4-4.4c1.1-0.4-0.2-0.8-0.2-0.8l-2.2-2.1
	c-2.1,0-4.2-0.4-6.2-1.1c-2.4-1.2-4.8-2.6-7-4.2l-4.8-0.9l-1.7-0.3c0,0,1.6-0.6,2-0.9c0.6-0.2,1.1-0.3,1.7-0.4c0,0-0.9-1.2-1.8-2.5
	c-1.9-3.2-2.8-6.9-2.5-10.7c0.1-1.1,0.5-2.2,1.2-3.1c0.4-0.3,0.8-0.5,1.3-0.7c0.4-0.1,0.8-0.2,1.2-0.2c0.7-0.2,1.5-0.4,2.3-0.6
	c2.5-0.4,1.7-2.7,3-2.7c0.8,0,0.4,1.5,2.1,1.2c4.7-1.5,9.1-4.1,12.7-7.4c1.5-1.1,2.7-2.6,3.5-4.2c0.6-1.7,0.7-3.5,0.1-5.2
	C722.4,126,723.2,125.1,722.9,123.4L722.9,123.4z M695.9,161.1c-0.4-0.1-0.7-0.3-1-0.6c-1.2-0.2-2.1-1.2-2.1-2.4c-0.1-1.7,0-3.1,0-4
	c-0.1-1.8-0.3-2.3,0.2-1.9c0.4,1.3,0.7,2.7,0.8,4.1c0.2,0.7,0.3,1.5,0.4,2.2c0.3,0.3,0.5,0.6,0.9,0.9
	C695.2,160,695.5,160.5,695.9,161.1L695.9,161.1z M710.2,117.9c-0.2,3.7-0.7,7.3-1.7,10.8c-1.1,2.9-3.2,5.2-6,6.5
	c-1.6,0.5-3.1,1.2-4.5,2.1c-0.4,0.6-0.7,1.4-0.7,2.1c-0.5-3.3-0.6-6.6-0.3-9.9c0.2-0.9,0.4-1.8,0.7-2.6c0.4-1.5,0.9-3,1.5-4.4
	c0.5-1.2,1-2.5,1.3-3.8c0.6-1.2,1.2-2.4,1.9-3.5c-0.7,0.2-1.3,0.6-1.6,1.2c-0.8,1.2-1.5,1.9-2.3,3.1c-0.6,1-1.1,2.1-1.6,3.2
	c-0.5,1.1-1.1,2.2-1.8,3.2c0.9-2,1.6-4,2.2-6.1c0.7-2.3,2-4.5,3.7-6.2c1.1-0.4,2.3-0.3,3.3,0.4c0.6,0.5,1.8,1.7,3,2.8
	c1.2,1.1,2.5-0.5,2.7-0.3C710.5,117.9,710.5,117.9,710.2,117.9L710.2,117.9z M571.9,81.6c-0.4-1.3-0.8-2.6-1.2-4l-1.2-0.1
	c-0.5,0.3-1,0.4-1.6,0.4c-0.7,0.2-1.3,0.5-2,0.9c-0.8,0.3-1.8,0.1-2.4-0.6c-0.3-0.7-0.6-1.5-0.9-2.2c-1.9-0.2-3.8-0.1-5.7,0.1
	c-2.8,1.8-5.3,3.9-7.6,6.3c-0.4,1.7,10.5,8.1,14.6,8.8c2.9,0.5,3.8,0.5,4.6-0.9c0.4-0.7,1.9-4,2.7-5.4
	C572.2,83.1,572.4,83,571.9,81.6L571.9,81.6z M568.2,86.3c-0.9,2.6-1.3,2.6-2.3,2.9c-1,0.1-2.1,0.1-3.1-0.1
	c-0.5-0.6-1.1-1.1-1.7-1.4l-0.7-0.5c0.6,0.3,1.6,0.4,1.9,0.6c0.4,0.2,1.6,0.7,1.6,0.7c0.6-0.1,1.2-0.2,1.7-0.1
	c0.6,0.1,1.3-0.2,1.4-0.9l0-0.1c0.6-1.2,1.3-2.5,2.1-3.6L568.2,86.3z M374.2,106.5c-1-0.4-1.4-0.9-2.3-1.2c-1.9-0.3-3.7-0.7-5.5-1.3
	c-4.7-1.9-9.6-3.4-14.6-4.4l-0.7,3.4c-0.4-1.1-0.7-2.3-0.8-3.4c-0.1-0.7-1.8,0.3-1.9-1.1c-0.1-1-0.9-5.6-0.9-6.7
	c0-0.8,0.7-4.9,0.7-5.8c-0.1-4.2-0.7-3.7-0.9-7.7c-0.3-6.2,1.8-6.3,0-14.2c-0.6-3.9-0.1-7.8,1.3-11.4c0.2-3.2,0.5-6.4,1.1-9.5
	c0.1-0.8,0.4-1.6,0.8-2.3c0.4-0.3,0.9-0.6,1.4-0.7c0.5,0,1,0.2,1.5,0.4c0.8,0,1.7,2.4,2.7,4.1c1,1.9,1.7,3.9,2.2,6
	c0.1,2.5-0.4,5-1.3,7.4c-1.2,1.9-2.7,3.6-4.5,5c-0.3,0.3-0.6,0.7-0.7,1.2c0.4-0.1,0.9,0,1.3,0.1c1,0.6,2.1,0.9,3.3,0.9
	c3-0.1,3.1-0.4,6.5-3.6c3.8-3.7,7-7.3,7-7.3c1.3-1.1,2.3-2.6,2.8-4.2c0.3-2,0.4-4.1,0.2-6.2c-0.3-0.6-2.3-0.1-2.8-0.5
	c-2.6-3.6-5-7.4-7.1-11.3c-1.3-2.7-2.8-5.3-4.6-7.8c-0.1-0.3-0.2-0.6-0.4-0.9c-1.1-0.4-1.5-0.7-2.4-0.9c-2.3-0.7-4.6-1.5-6.8-2.4
	c-1-0.4-1.9-0.8-3-1.1c-0.7-0.3-1.5-0.2-2.2,0.1c-1.4,1.2-2.6,2.6-3.8,4c-0.9,1.1-1.9,2.6-2.9,3.7c-2.2,2.5-4.4,4.8-5.3,6
	c-0.3,0.3-0.6,0.7-0.9,1.1c-0.3,1.3,0.4,2.8-0.1,4.1c-0.6,1.7-2.8,4.4-3.2,5.7c-0.3,1-0.5,2-0.6,3c0,1.5,0.2,2.9,0.7,4.3
	c0.8,2.4,1.1,5,0.8,7.6c-0.1,2.8,1.6,6.3,1.8,13.9c-0.3,5,0.3,10,2,14.8c1.1,2.3,1.9,4.7,2.6,7.2c-0.6-0.1-1.2,0-1.8,0.1
	c-3.5,0.6-13.6,1.4-13.6,1.4l-1.4,0.3l1,1.2c0,0,3,2,5,3.3c0.8,0.5,1.8,1.1,2.5,1.5c1.5,0.9,2.2,1.2,2.8,1.7
	c2.5,1.9,4.7,4.2,6.7,6.6c0.2,0.4,0.3,0.8,0.4,1.2c0.4,0.6,0.8,1.2,1,1.9c-0.7-0.7-1.5-1.3-2.4-1.9c-0.4,0.1-0.2,13.9-0.2,28.3
	c0,0.3,0.3,0.2,0.3,0.6c0.2,14.3-1.7,13.7-1.7,13.7c0.2,3.3,0.9,6.6,1.9,9.7c0.8,9,0,18-2.4,26.7c-0.1,0.3,1.6-15,1.1-16.8
	c-0.5-1.7-1.3-7.2-1.3-7.2s-0.3,5.4-1.1,12.2c-0.7,5.1-1.7,10.1-3.1,15.1c-0.2,0.6,4.4-2.3,4.6-1.8c0.6,0.3,1.2,0.4,1.8,0.2l3.5,7.4
	c0,0-3.5-4.6-5.4-2.5c-0.5,0.6-3.2,6.5-3.2,6.5s0.4,2.8-3.4,6.8c-0.8,0.8,0.1,2.4,0.7,3.6c0.5,0.9,1.3,1.2-0.2,3.2
	c-4,2.5-8.6,3.8-13.3,4c-1-0.1-2,0.1-2.9,0.5c-0.7,0.5-5.1-1.4-5.3-0.4c-0.2,1.1,8.4,4.3,8.4,4.3c3.3,0.7,6.6,1.1,10,1.1
	c0.4-0.5,1.3-1.4,1.7-2c0.5-0.6,0.9-1.5,1.5-2.2c0.6-0.5,1.2-1.1,1.7-1.6l2-3.7c0,0,3.9-1.5,3.6-0.7c-0.4,1.1-4.7,4.1-5,5.7
	c-0.1,0.5,0.4,0.9,0.3,1.6s0.1,0.3,0,1.2c-0.1,1.1-3.1,1.8-3.1,1.8c2.1-0.1,4.1-0.5,6-1.3c3.5-1.4,4.6-2.2,7.5-3.6
	c3.1-3.6,5.3-8,6.2-12.8c0.3-1,0.4-2,0.5-3.1c0.2-1,0.5-1.8,0.6-2.7c0.1-1.7,0.3-3.7,0.4-5.5c0.1-1.4-0.1-2.9-0.1-4.3
	c0-1.5,0.2-2.9,0.2-4.2c0-1.9-0.2-3.7-0.7-5.5c-1.1-2.8,0.4-3.3,0.5-5.9c0.1-3.1-0.3-6.1-0.3-12.5c0-4.2,0.2-8.9,0.2-13.3
	c0-2.4-0.1-4.8-0.2-7.2c0.3,1.9,0.6,3.2,0.6,2.5c0-1.5-0.1-6.2-0.1-8s1.5-2.5,0.2-4.3c-0.4-0.5-0.6-1.2-0.6-1.9
	c-0.1-0.7-0.4-0.8-0.5-1.4c0-0.7-0.2-1.4-0.5-2c-1.3-1.8-4.4-7-4.4-7l6.6,8.1c0.8-4.3,1.1-8.7,0.8-13c0-1.9,0.1-3.9,0.4-5.8l8.2,0.4
	l6.4-0.6l8.6-0.3l5.3,0.3l7-1.4c-1.4-1.1-2.8-2.1-4.4-2.9C378.2,106.8,376.1,107.3,374.2,106.5L374.2,106.5z M347,74.7
	c-0.5-2-0.8-4-1-6.1c-0.2-1.1-1.2-2.1-1.8-4.3c0-3.6,0.5-7.2,1.3-10.7l0.3,3.5c0.3,3.8,1,7.1,1.1,9.3
	C347.2,69.1,347.2,71.9,347,74.7z M782.1,86.6c-0.6-0.2-1.1-0.5-1.6-0.8c-0.5-0.4-1-0.9-1.4-1.4l-6.2-4.2l-6-3.7l-8.6-3.7
	c-2-0.2-4.1-0.3-6.1-0.2c-2.1,0-4.1,0.2-6.1,0.6c-0.1,0.1-1.3,1.3-2.7,2.6c-1.5,1.4-3.2,2.9-3.2,2.9l-1.5,0.8l-0.7,0.8l0.7,0.6
	l0.7,1l0.2,1.5c0.5,0.1,0.9,0.3,1.2,0.7c0.4,0.1,0.8,0.2,1.3,0.3l0.5,1.8c0.6,0.2,1,0.6,1.4,1.2c-0.6-0.1-1.1-0.4-1.5-0.8
	c-0.5-0.1-0.9-0.2-1.4-0.2c-0.2,0-0.5-0.1-0.6-0.3c-0.6-0.1-1.2,0-1.8,0.2c0.2-0.5,0.2-1.1,0.2-1.7c-0.3-0.2-0.6-0.4-0.9-0.4
	c-0.2,0-0.3-0.1-0.4-0.3c-0.1-0.9-0.6-1.6-1.4-2.1c0,0-4.9,4.7-6,5.6c-0.4,0.4-1.1,0.8-2.2,1.6c-0.9,0.7-1.6,1.3-2.7,2.2
	c-0.3,1.4-1.1,2.8-1.6,4.7c-0.2,0.7,1.1,0.6,1.4,2.3c0.3,1.7,0.7,3.1,0.8,3.7c0.2,0.7,0.7,1.4,1.4,3.4c0.4,1.3,0.8,2.8,1.2,4.1
	c0.6,1.9,1.4,3.4,1.5,4c0.1,0.7,0.3,1.4,0.6,2.1c0.5,0.7,1,1.3,1.6,2c0.3,0.4,0.6,0.8,0.8,1.3c0.2,0.5,0.5,0.8,0.7,1.3
	c0.3,0.8,0.5,1.7,0.9,2.3c1,1.6,2.2,3.1,3.5,4.5c0,0,4.1,3.9,4.4,4.4c0.4,0.4,0.9,0.7,1.5,0.9l1,2l2.4,3.7c1.4,1.5,2.8,3.1,4.1,4.8
	c1.4,1.9,3.1,4.1,4.5,6.2c1,1.6,1.9,3.3,2.5,5.2c0.9,2.6,1.5,5.3,1.6,8c0.9-0.1,1.9-4.2,1.9-4.2c0.2,2.3-0.5,4.5-2.1,6.2l-0.6,6.7
	c-0.4,0.4-1,0.8-1.5,0.9c-0.9,0.3-1.9,0.4-2.9,0.3c-0.3-0.8-0.4-1.7-0.3-2.6c-0.2-2-0.5-4.1-1-6.1c-0.2-1.5,0.3-4-0.9-4.4
	c-1.1-0.7-2.1-1.6-2.9-2.6c-2.1-2.3-5.2-5.5-8.3-9.3c-1.1-1.4-2.3-2.4-3.2-3.5c-0.7-0.8-1.2-1.7-1.7-2.7l-2.9-0.3
	c0.1,3.6,0,7.2-0.4,10.7c-0.2,1.2-0.6,2.3-1.1,3.4c-0.4,1.3-0.5,2.5-0.8,3.3c-0.6,3.3-0.5,6.7,0.3,10c0.9-1.8,1.4-3.7,1.7-5.7
	c0.2-1.8-0.8-3.2-0.6-4.9c0.2-1.4,0.6-2.9,1.1-4.2l-0.2,3.4c0.2,1,0.5,2,0.9,3c0.1,2.2-0.1,4.3-0.7,6.4l-0.7,2.9
	c0,0,0.1,3.1-0.5,3.3c-0.6,0.7-0.9,1.6-1.1,2.6l-1,5.7l-1.1-4.5c-0.8,0.8-1.5,1.7-2.2,2.6c-0.3,0.7-0.5,1.5-0.6,2.3
	c-0.1,0.4,0,0.7,0.6,0.9c0.4,0.2,0.9,0.2,1.5,0.4c0.4,0.1,0.7,0.3,1.1,0.4c1.2,0.3,2.1-0.2,3.6,0.1c2.1,0.4,4.2,1.2,6,2.3
	c1.1,0.7,2.2,1.1,2.8,1.6c0.5,0.3,1.1,0.3,1.7,0.2c3.8-0.7,7.7-1.2,11.7-1.4c2-0.1,12.7,0,12.7,0c2.1,0.2,4.3,0.2,6.4,0.1
	c1.2-0.6,1.3-0.7,3.1-1.5c0.4-1.5,1-3,1.8-4.3c0.1-0.6,0.2-1.3,0.2-1.9l-0.4-1.4c0,0-3.2-8.3-3.7-10.7c-0.3-1.3-0.7-2.4-1-3.4
	c-0.1-0.9-0.2-1.7-0.4-2.6c-0.4-0.5-0.6-1.1-0.8-1.7c0-0.7-0.2-1.3-0.6-1.9c-0.5-0.6-0.9-1.2-1.3-1.8c-0.5-0.8,0-1.4-0.5-2.3
	c-0.4-0.6-1.5-0.9-1.9-1.5c-0.5-0.8-0.7-1.9-1.2-2.7c-1.2-1.8-2.3-3.6-3.3-5.1c-1.6-2.6-2.5-4.6-2.7-4.7l-1.7-1.7l-1.9-2.5l-2.8-3.3
	c0,0-0.8-0.9-1.9-2.2c-1.4-0.9-2.7-1.9-4-2.9c-1.4-1.1-2.9-2.1-4.4-3.1c-3.5-1.7-6.6-4-9.3-6.7c1.3,1.1,2.9,2,4.5,2.6
	c0.9,0.2,1.7,0.7,2.4,1.3c0.9,0.4,1.8,0.6,2.8,0.7l4.8,4.1c-1.1-1.3-2.1-2.8-3.1-4.2c-1.5-2-2.3-4.4-2.1-6.9
	c0.3-3.1-0.6-5.9,1.3-8.3c2.4-2.5,5.2-4.7,8.2-6.4c1.4-0.9,4.1-2.5,4.1-2.5c-2.8,0-5.6,0.6-8.1,1.9c-2.2,1.8-4.2,3.8-6,6l0.7-1.7
	c0,0,3.6-5.4,5.3-6.2c0.9,0,1.8-0.1,2.7-0.2c0,0,7.2-2.4,8.7-2.6c1.1-0.1,0,3.5,0,3.5c0.9,0.4,1.4,1.3,1.2,2.2c-0.1,2-0.1,5-0.2,6.7
	c0,0.4,0.2,0.9,0.3,1.3c0.4,0.2,0.8,0.3,1.2,0.3c0.5,0,1-0.1,1.5-0.2l1.1,1.3l0.2,6l1.6,3.3c0,0,1.4-0.7,3.2-1.7
	c0.7-0.4,1.4-0.6,2.1-1c1.6-0.9,3-2.2,3.9-3.7c0.9-2.7,1.5-6.3,2.3-8.2c0.4-0.8,0.8-1.6,1.3-2.4c-1.4,2-2.5,4.2-3.4,6.5
	c-0.6,1.3-1.4,2.5-2.4,3.6c-0.6,1-0.7,0.7-0.7,0.7s0.3-0.3,0.7-0.7c0.7-1.5,1.4-3.1,1.8-4.7c2.1-6.4,5.1-9.4,6.4-9.1
	c0.1,0,0.2,0,0.3,0c0.1-0.1,0.2-0.3,0.3-0.5c0-2.4-0.4-4.7-1-7C783.7,88.3,782.9,87.5,782.1,86.6L782.1,86.6z M753.2,176.5l-2.3-4
	l0.2-3.7l0.8,0.6c0.4-3.5-0.2-7-1.7-10.2c2.2,2.6,3.2,5.9,2.7,9.3c-0.5,3.2,0.4,6.5,2.5,9.1L753.2,176.5z"/>
</svg>
