<svg xmlns="http://www.w3.org/2000/svg" fill="none" viewBox="0 0 143 4" preserveAspectRatio="none"><defs/><path fill="#1d4351" d="M143 1.5c-.16.09-.22.16-.29.16-5.97.2-11.95.44-17.93.6-2.4.05-4.82-.18-7.23-.14-4.21.08-8.42.34-12.63.37-2.95.02-5.91-.5-8.85-.28-3.96.29-7.92.29-11.88.38-1.48.03-2.95-.08-4.43-.08-2.59 0-5.18.03-7.78.04-.68 0-1.36-.07-2.05-.08-1.22 0-2.44-.03-3.66.04-1.58.1-3.16.37-4.74.4-2.88.05-5.77-.06-8.65-.04-2.7.02-5.4-.26-8.09-.41-3.56-.2-7.13-.32-10.69.26-1.35.23-2.73.2-4.1.2-3.7.02-7.42.17-11.13-.06-3.93-.24-7.84.44-11.76.32-1-.03-2.01-.07-3.02-.07-.4 0-.79.1-1.18.12-.6.03-1.2.03-1.81.04L.75 1.9c.12-.81.49-1.04.9-1.13.31-.07.65-.13.96-.04 3 .85 6.03.48 9.05.49 4.93 0 9.85.32 14.78.43 3.17.07 6.34-.24 9.5-.38.83-.04 1.67-.24 2.48-.13 4.5.64 9 .4 13.5.33 5.87-.1 11.74-.16 17.61-.18 3.39-.01 6.77.09 10.15.1 1.77.02 3.53-.08 5.3-.05 1.08.01 2.15.23 3.23.25 1.65.02 3.3-.07 4.96-.07 4.29.02 8.57.12 12.86.08 3.13-.03 6.28.06 9.38-.42a35.3 35.3 0 019.7.04c1.57.18 3.17.09 4.75.12 1.9.03 3.81.07 5.72.09.69 0 1.38.03 2.05-.1 1.77-.3 3.52-.02 5.37.16z"/></svg>